<?xml version="1.0" encoding="UTF-8"?>
<svg xmlns="http://www.w3.org/2000/svg" xmlns:xlink="http://www.w3.org/1999/xlink" width="79px" height="64px" viewBox="0 0 79 64" version="1.1">
<g id="surface1">
<path style=" stroke:none;fill-rule:evenodd;fill:rgb(76.470588%,82.352941%,86.666667%);fill-opacity:1;" d="M 42.03125 1.183594 C 42.328125 3.804688 41.136719 5.804688 37.5625 8.691406 C 34.832031 10.894531 33.175781 12.632812 32.84375 13.644531 C 32.363281 15.101562 32.816406 16.554688 34.386719 18.605469 C 35.273438 19.757812 37.609375 22.007812 37.929688 22.007812 C 38.023438 22.007812 37.78125 21.507812 37.390625 20.894531 C 37 20.285156 36.375 19.308594 36.003906 18.726562 C 34.054688 15.671875 34.582031 13.820312 38.320312 10.550781 C 40.496094 8.652344 41.589844 7.355469 42.445312 5.652344 C 43.191406 4.171875 43.242188 2.144531 42.566406 0.859375 C 42.316406 0.386719 42.0625 0 42.003906 0 C 41.945312 0 41.957031 0.53125 42.03125 1.183594 Z M 45.382812 8.6875 C 41.121094 10.203125 38.375 12.453125 37.988281 14.746094 C 37.804688 15.835938 38.339844 17.546875 39.199219 18.609375 C 40.640625 20.394531 40.808594 21.578125 39.792969 22.785156 C 39.070312 23.648438 39.183594 23.71875 40.175781 23.039062 C 42.039062 21.753906 42.921875 20.167969 42.53125 18.808594 C 42.429688 18.449219 42.007812 17.699219 41.597656 17.136719 C 40.597656 15.773438 40.269531 14.785156 40.519531 13.886719 C 40.78125 12.929688 42.765625 11.074219 45.09375 9.605469 C 47.449219 8.117188 47.507812 7.929688 45.382812 8.6875 Z M 11.992188 19.300781 C 11.769531 19.347656 11.105469 19.484375 10.515625 19.601562 C 8.21875 20.070312 6.46875 21.171875 5.488281 22.769531 C 4.257812 24.769531 3.878906 26.816406 3.753906 32.101562 C 3.683594 35.09375 3.605469 35.808594 3.238281 36.773438 C 2.742188 38.089844 1.496094 39.605469 0.613281 39.972656 C 0.0898438 40.1875 0 40.332031 0 40.960938 C 0 41.601562 0.0976562 41.753906 0.71875 42.085938 C 1.683594 42.609375 2.570312 43.65625 3.195312 45.011719 C 3.675781 46.058594 3.71875 46.414062 3.855469 50.371094 C 3.941406 52.871094 4.128906 55.230469 4.316406 56.121094 C 5.25 60.574219 7.839844 62.621094 12.941406 62.929688 C 14.523438 63.027344 14.988281 62.996094 15.121094 62.777344 C 15.246094 62.574219 15.023438 62.367188 14.292969 61.988281 C 12.511719 61.074219 11.128906 59.382812 10.5625 57.4375 C 10.464844 57.105469 10.386719 54.242188 10.382812 51.078125 C 10.378906 45.347656 10.375 45.320312 9.875 44.316406 C 9.257812 43.082031 7.769531 41.90625 6.410156 41.582031 C 5.113281 41.269531 5.058594 40.695312 6.296875 40.371094 C 7.445312 40.066406 8.867188 39.128906 9.414062 38.316406 C 10.3125 36.972656 10.480469 35.632812 10.429688 30.183594 C 10.378906 25.351562 10.398438 25.085938 10.832031 24.007812 C 11.480469 22.414062 12.484375 21.328125 14.023438 20.570312 C 15.800781 19.691406 15.734375 19.292969 13.800781 19.25 C 13.027344 19.234375 12.210938 19.257812 11.992188 19.300781 Z M 63.761719 19.417969 C 63.675781 19.558594 63.765625 19.75 63.976562 19.875 C 66.601562 21.429688 67.3125 22.171875 68.046875 24.144531 C 68.371094 25.019531 68.414062 25.8125 68.417969 30.992188 C 68.417969 36.496094 68.445312 36.898438 68.839844 37.753906 C 69.503906 39.191406 71.605469 40.765625 72.882812 40.777344 C 73.320312 40.78125 73.652344 41.273438 73.445312 41.609375 C 73.382812 41.710938 73.132812 41.792969 72.890625 41.792969 C 72.121094 41.796875 70.429688 42.722656 69.800781 43.484375 C 68.613281 44.925781 68.449219 45.929688 68.433594 51.886719 C 68.421875 56.980469 68.398438 57.292969 67.957031 58.382812 C 67.386719 59.800781 66.222656 60.992188 64.722656 61.695312 C 63.34375 62.34375 63.445312 62.257812 63.601562 62.660156 C 63.703125 62.925781 64.015625 62.988281 65.167969 62.988281 C 68.199219 62.980469 71.242188 61.902344 72.652344 60.335938 C 74.339844 58.46875 74.886719 56.21875 75.136719 50.171875 C 75.277344 46.652344 75.359375 46.003906 75.75 45.121094 C 76.257812 43.980469 77.570312 42.539062 78.425781 42.183594 C 78.894531 41.988281 79 41.820312 79 41.265625 C 79 40.679688 78.890625 40.535156 78.210938 40.183594 C 77.199219 39.667969 76.058594 38.273438 75.535156 36.90625 C 75.191406 36.011719 75.097656 35.109375 74.957031 31.394531 C 74.769531 26.480469 74.519531 25.054688 73.515625 23.171875 C 72.484375 21.226562 70.734375 20.09375 67.84375 19.496094 C 66.023438 19.117188 63.96875 19.082031 63.761719 19.417969 Z M 24.285156 20.257812 C 20.265625 21.296875 18.042969 26.21875 19.027344 31.898438 C 20.417969 39.921875 26.648438 53.207031 32.898438 61.472656 C 34.78125 63.96875 35.386719 64.375 36.117188 63.644531 L 36.554688 63.207031 L 36.199219 60.652344 C 36.007812 59.246094 35.792969 57.171875 35.730469 56.039062 C 35.601562 53.773438 35.777344 53.0625 37.105469 50.421875 C 37.785156 49.078125 39.5625 46.34375 39.894531 46.136719 C 40.003906 46.070312 40.347656 46.148438 40.65625 46.308594 C 42.714844 47.375 44.074219 50.542969 44.550781 55.382812 C 44.855469 58.503906 44.867188 58.550781 45.417969 58.550781 C 46.023438 58.550781 46.234375 58.289062 47.832031 55.574219 C 52.011719 48.46875 55.238281 39.914062 56.300781 33.109375 C 57.253906 27 57.265625 25.019531 56.363281 23.171875 C 55.425781 21.25 53.566406 20.335938 50.585938 20.335938 C 48.621094 20.335938 47.523438 20.65625 44.035156 22.246094 C 40.988281 23.632812 40.25 23.84375 38.390625 23.875 C 36.957031 23.898438 36.589844 23.820312 35.066406 23.171875 C 34.125 22.769531 33.375 22.339844 33.402344 22.222656 C 33.429688 22.101562 33.160156 22.007812 32.800781 22.007812 C 32.4375 22.007812 31.828125 21.828125 31.4375 21.613281 C 29.261719 20.398438 28.511719 20.144531 26.90625 20.070312 C 25.984375 20.027344 24.859375 20.109375 24.285156 20.257812 Z M 35.828125 24.722656 C 36.414062 24.914062 37.410156 25.382812 38.042969 25.765625 C 39.773438 26.8125 41.074219 27.132812 43.632812 27.144531 C 44.851562 27.148438 46.347656 27.085938 46.957031 27 C 48.386719 26.796875 47.988281 27.089844 45.949219 27.738281 C 42.894531 28.710938 40.28125 28.59375 37.894531 27.375 C 36.574219 26.699219 34.933594 25.40625 34.066406 24.355469 L 33.585938 23.777344 L 34.175781 24.074219 C 34.5 24.238281 35.242188 24.53125 35.828125 24.722656 Z M 35.828125 24.722656 "/>
<path style=" stroke:none;fill-rule:evenodd;fill:rgb(65.098039%,73.72549%,80.392157%);fill-opacity:1;" d="M 42.03125 1.183594 C 42.328125 3.804688 41.136719 5.804688 37.5625 8.691406 C 34.832031 10.894531 33.175781 12.632812 32.84375 13.644531 C 32.363281 15.101562 32.816406 16.554688 34.386719 18.605469 C 35.273438 19.757812 37.609375 22.007812 37.929688 22.007812 C 38.023438 22.007812 37.78125 21.507812 37.390625 20.894531 C 37 20.285156 36.375 19.308594 36.003906 18.726562 C 34.054688 15.671875 34.582031 13.820312 38.320312 10.550781 C 40.496094 8.652344 41.589844 7.355469 42.445312 5.652344 C 43.191406 4.171875 43.242188 2.144531 42.566406 0.859375 C 42.316406 0.386719 42.0625 0 42.003906 0 C 41.945312 0 41.957031 0.53125 42.03125 1.183594 Z M 45.382812 8.6875 C 41.121094 10.203125 38.375 12.453125 37.988281 14.746094 C 37.804688 15.835938 38.339844 17.546875 39.199219 18.609375 C 40.640625 20.394531 40.808594 21.578125 39.792969 22.785156 C 39.070312 23.648438 39.183594 23.71875 40.175781 23.039062 C 42.039062 21.753906 42.921875 20.167969 42.53125 18.808594 C 42.429688 18.449219 42.007812 17.699219 41.597656 17.136719 C 40.597656 15.773438 40.269531 14.785156 40.519531 13.886719 C 40.78125 12.929688 42.765625 11.074219 45.09375 9.605469 C 47.449219 8.117188 47.507812 7.929688 45.382812 8.6875 Z M 11.992188 19.300781 C 11.769531 19.347656 11.105469 19.484375 10.515625 19.601562 C 8.21875 20.070312 6.46875 21.171875 5.488281 22.769531 C 4.257812 24.769531 3.878906 26.816406 3.753906 32.101562 C 3.683594 35.09375 3.605469 35.808594 3.238281 36.773438 C 2.742188 38.089844 1.496094 39.605469 0.613281 39.972656 C 0.0898438 40.1875 0 40.332031 0 40.960938 C 0 41.601562 0.0976562 41.753906 0.71875 42.085938 C 1.683594 42.609375 2.570312 43.65625 3.195312 45.011719 C 3.675781 46.058594 3.71875 46.414062 3.855469 50.371094 C 3.941406 52.871094 4.128906 55.230469 4.316406 56.121094 C 5.25 60.574219 7.839844 62.621094 12.941406 62.929688 C 14.523438 63.027344 14.988281 62.996094 15.121094 62.777344 C 15.246094 62.574219 15.023438 62.367188 14.292969 61.988281 C 12.511719 61.074219 11.128906 59.382812 10.5625 57.4375 C 10.464844 57.105469 10.386719 54.242188 10.382812 51.078125 C 10.378906 45.347656 10.375 45.320312 9.875 44.316406 C 9.257812 43.082031 7.769531 41.90625 6.410156 41.582031 C 5.113281 41.269531 5.058594 40.695312 6.296875 40.371094 C 7.445312 40.066406 8.867188 39.128906 9.414062 38.316406 C 10.3125 36.972656 10.480469 35.632812 10.429688 30.183594 C 10.378906 25.351562 10.398438 25.085938 10.832031 24.007812 C 11.480469 22.414062 12.484375 21.328125 14.023438 20.570312 C 15.800781 19.691406 15.734375 19.292969 13.800781 19.25 C 13.027344 19.234375 12.210938 19.257812 11.992188 19.300781 Z M 63.761719 19.417969 C 63.675781 19.558594 63.765625 19.75 63.976562 19.875 C 66.601562 21.429688 67.3125 22.171875 68.046875 24.144531 C 68.371094 25.019531 68.414062 25.8125 68.417969 30.992188 C 68.417969 36.496094 68.445312 36.898438 68.839844 37.753906 C 69.503906 39.191406 71.605469 40.765625 72.882812 40.777344 C 73.320312 40.78125 73.652344 41.273438 73.445312 41.609375 C 73.382812 41.710938 73.132812 41.792969 72.890625 41.792969 C 72.121094 41.796875 70.429688 42.722656 69.800781 43.484375 C 68.613281 44.925781 68.449219 45.929688 68.433594 51.886719 C 68.421875 56.980469 68.398438 57.292969 67.957031 58.382812 C 67.386719 59.800781 66.222656 60.992188 64.722656 61.695312 C 63.34375 62.34375 63.445312 62.257812 63.601562 62.660156 C 63.703125 62.925781 64.015625 62.988281 65.167969 62.988281 C 68.199219 62.980469 71.242188 61.902344 72.652344 60.335938 C 74.339844 58.46875 74.886719 56.21875 75.136719 50.171875 C 75.277344 46.652344 75.359375 46.003906 75.75 45.121094 C 76.257812 43.980469 77.570312 42.539062 78.425781 42.183594 C 78.894531 41.988281 79 41.820312 79 41.265625 C 79 40.679688 78.890625 40.535156 78.210938 40.183594 C 77.199219 39.667969 76.058594 38.273438 75.535156 36.90625 C 75.191406 36.011719 75.097656 35.109375 74.957031 31.394531 C 74.769531 26.480469 74.519531 25.054688 73.515625 23.171875 C 72.484375 21.226562 70.734375 20.09375 67.84375 19.496094 C 66.023438 19.117188 63.96875 19.082031 63.761719 19.417969 Z M 24.285156 20.257812 C 21.914062 20.871094 20.394531 22.511719 19.316406 25.621094 C 17.894531 29.722656 19.414062 36.382812 24.070312 46.433594 C 25.832031 50.246094 27.085938 52.542969 27.289062 52.339844 C 27.375 52.257812 27.417969 52.28125 27.386719 52.390625 C 27.28125 52.765625 27.636719 53.507812 27.855469 53.371094 C 27.984375 53.292969 28.015625 53.332031 27.9375 53.457031 C 27.800781 53.683594 28.542969 55.101562 28.699219 54.914062 C 28.746094 54.859375 28.859375 54.898438 28.953125 54.996094 C 29.050781 55.105469 29.015625 55.121094 28.871094 55.035156 C 28.542969 54.847656 28.558594 55.121094 28.894531 55.566406 C 29.042969 55.761719 29.226562 55.851562 29.308594 55.769531 C 29.390625 55.6875 29.4375 55.710938 29.417969 55.824219 C 29.324219 56.273438 29.4375 56.546875 29.65625 56.410156 C 29.800781 56.320312 29.835938 56.355469 29.746094 56.496094 C 29.582031 56.761719 31.238281 59.34375 33.253906 61.957031 C 34.832031 64 35.417969 64.34375 36.128906 63.628906 L 36.554688 63.207031 L 36.199219 60.652344 C 36.007812 59.246094 35.792969 57.171875 35.730469 56.039062 C 35.601562 53.773438 35.777344 53.0625 37.105469 50.421875 C 37.785156 49.078125 39.5625 46.34375 39.894531 46.136719 C 40.003906 46.070312 40.347656 46.148438 40.65625 46.308594 C 42.714844 47.375 44.074219 50.542969 44.550781 55.382812 C 44.855469 58.503906 44.867188 58.550781 45.417969 58.550781 C 46.023438 58.550781 46.234375 58.289062 47.832031 55.574219 C 52.011719 48.46875 55.238281 39.914062 56.300781 33.109375 C 57.253906 27 57.265625 25.019531 56.363281 23.171875 C 55.425781 21.25 53.566406 20.335938 50.585938 20.335938 C 48.621094 20.335938 47.523438 20.65625 44.035156 22.246094 C 40.988281 23.632812 40.25 23.84375 38.390625 23.875 C 36.957031 23.898438 36.589844 23.820312 35.066406 23.171875 C 34.125 22.769531 33.375 22.339844 33.402344 22.222656 C 33.429688 22.101562 33.160156 22.007812 32.800781 22.007812 C 32.4375 22.007812 31.828125 21.828125 31.4375 21.613281 C 29.261719 20.398438 28.511719 20.144531 26.90625 20.070312 C 25.984375 20.027344 24.859375 20.109375 24.285156 20.257812 Z M 25.742188 21.722656 C 25.675781 21.792969 25.5 21.796875 25.355469 21.742188 C 25.195312 21.675781 25.242188 21.628906 25.476562 21.617188 C 25.6875 21.609375 25.808594 21.65625 25.742188 21.722656 Z M 25.648438 22.339844 C 25.511719 22.394531 25.238281 22.398438 25.042969 22.347656 C 24.847656 22.296875 24.960938 22.25 25.292969 22.246094 C 25.625 22.242188 25.785156 22.285156 25.648438 22.339844 Z M 48.515625 22.9375 C 48.449219 23.003906 48.273438 23.011719 48.128906 22.953125 C 47.96875 22.886719 48.015625 22.839844 48.25 22.828125 C 48.460938 22.820312 48.582031 22.867188 48.515625 22.9375 Z M 35.828125 24.722656 C 36.414062 24.914062 37.410156 25.382812 38.042969 25.765625 C 39.773438 26.8125 41.074219 27.132812 43.632812 27.144531 C 44.851562 27.148438 46.347656 27.085938 46.957031 27 C 48.386719 26.796875 47.988281 27.089844 45.949219 27.738281 C 42.210938 28.929688 38.925781 28.441406 36.074219 26.277344 C 35.6875 25.984375 35.292969 25.765625 35.203125 25.796875 C 35.109375 25.828125 35.089844 25.765625 35.15625 25.660156 C 35.222656 25.554688 35.113281 25.34375 34.917969 25.195312 C 34.722656 25.046875 34.335938 24.664062 34.058594 24.347656 L 33.554688 23.773438 L 34.160156 24.074219 C 34.492188 24.238281 35.242188 24.53125 35.828125 24.722656 Z M 30.378906 25.171875 C 30.1875 25.226562 29.871094 25.226562 29.675781 25.171875 C 29.480469 25.125 29.640625 25.082031 30.027344 25.082031 C 30.414062 25.082031 30.574219 25.125 30.378906 25.171875 Z M 53.34375 28.613281 C 53.292969 28.8125 53.246094 28.699219 53.242188 28.367188 C 53.238281 28.03125 53.28125 27.871094 53.335938 28.007812 C 53.390625 28.144531 53.394531 28.417969 53.34375 28.613281 Z M 23.515625 35.167969 C 23.449219 35.328125 23.402344 35.28125 23.394531 35.046875 C 23.386719 34.832031 23.433594 34.714844 23.5 34.78125 C 23.566406 34.847656 23.574219 35.023438 23.515625 35.167969 Z M 38.089844 45.300781 C 38.089844 45.34375 37.929688 45.5 37.738281 45.652344 C 37.417969 45.90625 37.410156 45.898438 37.660156 45.578125 C 37.925781 45.242188 38.089844 45.132812 38.089844 45.300781 Z M 38.089844 45.300781 "/>
<path style=" stroke:none;fill-rule:evenodd;fill:rgb(40.392157%,55.294118%,66.666667%);fill-opacity:1;" d="M 42.03125 1.183594 C 42.328125 3.804688 41.136719 5.804688 37.5625 8.691406 C 34.832031 10.894531 33.175781 12.632812 32.84375 13.644531 C 32.363281 15.101562 32.816406 16.554688 34.386719 18.605469 C 35.273438 19.757812 37.609375 22.007812 37.929688 22.007812 C 38.023438 22.007812 37.78125 21.507812 37.390625 20.894531 C 37 20.285156 36.375 19.308594 36.003906 18.726562 C 34.054688 15.671875 34.582031 13.820312 38.320312 10.550781 C 40.496094 8.652344 41.589844 7.355469 42.445312 5.652344 C 43.191406 4.171875 43.242188 2.144531 42.566406 0.859375 C 42.316406 0.386719 42.0625 0 42.003906 0 C 41.945312 0 41.957031 0.53125 42.03125 1.183594 Z M 45.382812 8.6875 C 41.121094 10.203125 38.375 12.453125 37.988281 14.746094 C 37.804688 15.835938 38.339844 17.546875 39.199219 18.609375 C 40.640625 20.394531 40.808594 21.578125 39.792969 22.785156 C 39.070312 23.648438 39.183594 23.71875 40.175781 23.039062 C 42.039062 21.753906 42.921875 20.167969 42.53125 18.808594 C 42.429688 18.449219 42.007812 17.699219 41.597656 17.136719 C 40.597656 15.773438 40.269531 14.785156 40.519531 13.886719 C 40.78125 12.929688 42.765625 11.074219 45.09375 9.605469 C 47.449219 8.117188 47.507812 7.929688 45.382812 8.6875 Z M 11.992188 19.300781 C 11.769531 19.347656 11.105469 19.484375 10.515625 19.601562 C 8.21875 20.070312 6.46875 21.171875 5.488281 22.769531 C 4.257812 24.769531 3.878906 26.816406 3.753906 32.101562 C 3.683594 35.09375 3.605469 35.808594 3.238281 36.773438 C 2.742188 38.089844 1.496094 39.605469 0.613281 39.972656 C 0.0898438 40.1875 0 40.332031 0 40.960938 C 0 41.601562 0.0976562 41.753906 0.71875 42.085938 C 1.683594 42.609375 2.570312 43.65625 3.195312 45.011719 C 3.675781 46.058594 3.71875 46.414062 3.855469 50.371094 C 3.941406 52.871094 4.128906 55.230469 4.316406 56.121094 C 5.25 60.574219 7.839844 62.621094 12.941406 62.929688 C 14.523438 63.027344 14.988281 62.996094 15.121094 62.777344 C 15.246094 62.574219 15.023438 62.367188 14.292969 61.988281 C 12.511719 61.074219 11.128906 59.382812 10.5625 57.4375 C 10.464844 57.105469 10.386719 54.242188 10.382812 51.078125 C 10.378906 45.347656 10.375 45.320312 9.875 44.316406 C 9.257812 43.082031 7.769531 41.90625 6.410156 41.582031 C 5.113281 41.269531 5.058594 40.695312 6.296875 40.371094 C 7.445312 40.066406 8.867188 39.128906 9.414062 38.316406 C 10.3125 36.972656 10.480469 35.632812 10.429688 30.183594 C 10.378906 25.351562 10.398438 25.085938 10.832031 24.007812 C 11.480469 22.414062 12.484375 21.328125 14.023438 20.570312 C 15.800781 19.691406 15.734375 19.292969 13.800781 19.25 C 13.027344 19.234375 12.210938 19.257812 11.992188 19.300781 Z M 63.761719 19.417969 C 63.675781 19.558594 63.765625 19.75 63.976562 19.875 C 66.601562 21.429688 67.3125 22.171875 68.046875 24.144531 C 68.371094 25.019531 68.414062 25.8125 68.417969 30.992188 C 68.417969 36.496094 68.445312 36.898438 68.839844 37.753906 C 69.503906 39.191406 71.605469 40.765625 72.882812 40.777344 C 73.320312 40.78125 73.652344 41.273438 73.445312 41.609375 C 73.382812 41.710938 73.132812 41.792969 72.890625 41.792969 C 72.121094 41.796875 70.429688 42.722656 69.800781 43.484375 C 68.613281 44.925781 68.449219 45.929688 68.433594 51.886719 C 68.421875 56.980469 68.398438 57.292969 67.957031 58.382812 C 67.386719 59.800781 66.222656 60.992188 64.722656 61.695312 C 63.34375 62.34375 63.445312 62.257812 63.601562 62.660156 C 63.703125 62.925781 64.015625 62.988281 65.167969 62.988281 C 68.199219 62.980469 71.242188 61.902344 72.652344 60.335938 C 74.339844 58.46875 74.886719 56.21875 75.136719 50.171875 C 75.277344 46.652344 75.359375 46.003906 75.75 45.121094 C 76.257812 43.980469 77.570312 42.539062 78.425781 42.183594 C 78.894531 41.988281 79 41.820312 79 41.265625 C 79 40.679688 78.890625 40.535156 78.210938 40.183594 C 77.199219 39.667969 76.058594 38.273438 75.535156 36.90625 C 75.191406 36.011719 75.097656 35.109375 74.957031 31.394531 C 74.769531 26.480469 74.519531 25.054688 73.515625 23.171875 C 72.484375 21.226562 70.734375 20.09375 67.84375 19.496094 C 66.023438 19.117188 63.96875 19.082031 63.761719 19.417969 Z M 24.285156 20.257812 C 20.265625 21.296875 18.042969 26.21875 19.027344 31.898438 C 19.683594 35.679688 21.289062 40.378906 23.820312 45.917969 C 25.535156 49.679688 26.414062 51.296875 26.65625 51.144531 C 26.777344 51.070312 26.804688 51.113281 26.722656 51.25 C 26.535156 51.550781 27.410156 53.121094 27.671875 52.957031 C 27.785156 52.886719 27.808594 52.9375 27.730469 53.066406 C 27.546875 53.363281 28.222656 54.53125 28.484375 54.367188 C 28.589844 54.300781 28.617188 54.351562 28.539062 54.476562 C 28.359375 54.769531 28.777344 55.570312 29.027344 55.414062 C 29.132812 55.351562 29.167969 55.429688 29.105469 55.589844 C 29.042969 55.75 29.105469 55.953125 29.238281 56.035156 C 29.40625 56.140625 29.433594 56.105469 29.324219 55.925781 C 29.21875 55.753906 29.238281 55.707031 29.382812 55.796875 C 29.507812 55.875 29.5625 56.050781 29.511719 56.1875 C 29.398438 56.480469 31.523438 59.742188 33.378906 62.125 C 34.839844 63.996094 35.4375 64.324219 36.128906 63.628906 L 36.554688 63.207031 L 36.199219 60.652344 C 36.007812 59.246094 35.792969 57.171875 35.730469 56.039062 C 35.601562 53.773438 35.777344 53.0625 37.105469 50.421875 C 37.785156 49.078125 39.5625 46.34375 39.894531 46.136719 C 40.003906 46.070312 40.347656 46.148438 40.65625 46.308594 C 42.714844 47.375 44.074219 50.542969 44.550781 55.382812 C 44.855469 58.503906 44.867188 58.550781 45.417969 58.550781 C 46.023438 58.550781 46.234375 58.289062 47.832031 55.574219 C 51.199219 49.847656 53.707031 43.847656 55.316406 37.652344 C 55.984375 35.089844 56.640625 31.597656 56.605469 30.789062 C 56.59375 30.566406 56.695312 29.84375 56.828125 29.183594 C 56.960938 28.519531 57.039062 27.15625 57 26.152344 C 56.945312 24.648438 56.832031 24.125 56.367188 23.171875 C 55.421875 21.246094 53.566406 20.335938 50.585938 20.335938 C 48.621094 20.335938 47.523438 20.65625 44.035156 22.246094 C 40.988281 23.632812 40.25 23.84375 38.390625 23.875 C 36.957031 23.898438 36.589844 23.820312 35.066406 23.171875 C 34.125 22.769531 33.375 22.339844 33.402344 22.222656 C 33.429688 22.101562 33.160156 22.007812 32.800781 22.007812 C 32.4375 22.007812 31.828125 21.828125 31.4375 21.613281 C 29.261719 20.398438 28.511719 20.144531 26.90625 20.070312 C 25.984375 20.027344 24.859375 20.109375 24.285156 20.257812 Z M 28.5625 21.144531 C 28.144531 21.1875 27.507812 21.1875 27.152344 21.144531 C 26.792969 21.097656 27.136719 21.0625 27.910156 21.0625 C 28.6875 21.0625 28.980469 21.101562 28.5625 21.144531 Z M 25.695312 21.722656 C 25.324219 21.820312 23.980469 21.925781 23.980469 21.859375 C 23.980469 21.675781 24.914062 21.480469 25.375 21.570312 C 25.660156 21.625 25.804688 21.691406 25.695312 21.722656 Z M 25.648438 22.339844 C 25.511719 22.394531 25.238281 22.398438 25.042969 22.347656 C 24.847656 22.296875 24.960938 22.25 25.292969 22.246094 C 25.625 22.242188 25.785156 22.285156 25.648438 22.339844 Z M 48.417969 22.949219 C 48.277344 23.003906 48.050781 23.003906 47.914062 22.949219 C 47.777344 22.890625 47.890625 22.847656 48.164062 22.847656 C 48.441406 22.847656 48.554688 22.890625 48.417969 22.949219 Z M 35.828125 24.722656 C 36.414062 24.914062 37.410156 25.382812 38.042969 25.765625 C 39.773438 26.8125 41.074219 27.132812 43.632812 27.144531 C 44.851562 27.148438 46.347656 27.085938 46.957031 27 C 48.394531 26.796875 47.996094 27.082031 45.847656 27.789062 C 43.847656 28.449219 40.808594 28.539062 39.242188 27.980469 C 37.28125 27.285156 35.800781 26.238281 34.058594 24.324219 L 33.554688 23.773438 L 34.160156 24.074219 C 34.492188 24.238281 35.242188 24.53125 35.828125 24.722656 Z M 21.65625 24.214844 C 21.71875 24.316406 21.695312 24.449219 21.601562 24.507812 C 21.507812 24.566406 21.429688 24.480469 21.429688 24.320312 C 21.429688 23.980469 21.492188 23.949219 21.65625 24.214844 Z M 30.6875 25.175781 C 30.4375 25.226562 29.984375 25.226562 29.679688 25.179688 C 29.371094 25.132812 29.574219 25.09375 30.128906 25.09375 C 30.683594 25.089844 30.933594 25.128906 30.6875 25.175781 Z M 35.429688 26.148438 C 35.367188 26.210938 35.253906 26.101562 35.179688 25.902344 C 35.070312 25.613281 35.09375 25.589844 35.292969 25.789062 C 35.429688 25.925781 35.492188 26.089844 35.429688 26.148438 Z M 53.351562 28.917969 C 53.304688 29.28125 53.265625 29.03125 53.265625 28.367188 C 53.265625 27.699219 53.300781 27.402344 53.347656 27.707031 C 53.394531 28.007812 53.394531 28.554688 53.351562 28.917969 Z M 20.085938 28.515625 C 20.027344 28.65625 19.984375 28.542969 19.984375 28.265625 C 19.984375 27.988281 20.027344 27.875 20.085938 28.011719 C 20.140625 28.152344 20.140625 28.378906 20.085938 28.515625 Z M 20.089844 30.320312 C 20.023438 30.484375 19.976562 30.433594 19.96875 30.199219 C 19.957031 29.988281 20.007812 29.867188 20.074219 29.933594 C 20.140625 30 20.148438 30.175781 20.089844 30.320312 Z M 53.140625 30.925781 C 53.074219 31.089844 53.027344 31.039062 53.019531 30.804688 C 53.011719 30.59375 53.058594 30.472656 53.125 30.539062 C 53.191406 30.609375 53.199219 30.78125 53.140625 30.925781 Z M 23.511719 31.746094 C 23.457031 31.886719 23.410156 31.773438 23.410156 31.496094 C 23.410156 31.21875 23.457031 31.105469 23.511719 31.242188 C 23.566406 31.382812 23.566406 31.609375 23.511719 31.746094 Z M 20.289062 32.339844 C 20.226562 32.5 20.179688 32.453125 20.167969 32.21875 C 20.160156 32.003906 20.207031 31.886719 20.273438 31.953125 C 20.339844 32.019531 20.347656 32.195312 20.289062 32.339844 Z M 20.492188 33.753906 C 20.429688 33.914062 20.378906 33.867188 20.371094 33.632812 C 20.363281 33.417969 20.410156 33.300781 20.476562 33.367188 C 20.542969 33.433594 20.550781 33.609375 20.492188 33.753906 Z M 23.515625 35.683594 C 23.464844 35.878906 23.425781 35.71875 23.425781 35.332031 C 23.425781 34.941406 23.464844 34.785156 23.515625 34.976562 C 23.566406 35.171875 23.566406 35.488281 23.515625 35.683594 Z M 38.894531 44.476562 C 38.894531 44.511719 38.554688 44.851562 38.140625 45.234375 L 37.382812 45.929688 L 38.078125 45.171875 C 38.726562 44.46875 38.894531 44.324219 38.894531 44.476562 Z M 40.507812 45.300781 C 40.507812 45.34375 40.347656 45.5 40.15625 45.652344 C 39.835938 45.90625 39.828125 45.898438 40.078125 45.578125 C 40.34375 45.242188 40.507812 45.132812 40.507812 45.300781 Z M 46.753906 49.742188 C 46.753906 49.785156 46.597656 49.941406 46.402344 50.09375 C 46.082031 50.347656 46.074219 50.339844 46.328125 50.019531 C 46.589844 49.683594 46.753906 49.574219 46.753906 49.742188 Z M 45.949219 50.75 C 45.949219 50.792969 45.789062 50.953125 45.597656 51.105469 C 45.277344 51.355469 45.269531 51.347656 45.519531 51.027344 C 45.785156 50.691406 45.949219 50.585938 45.949219 50.75 Z M 33.855469 58.222656 C 33.855469 58.261719 33.699219 58.421875 33.503906 58.574219 C 33.183594 58.824219 33.179688 58.820312 33.429688 58.5 C 33.691406 58.160156 33.855469 58.054688 33.855469 58.222656 Z M 33.855469 58.222656 "/>
<path style=" stroke:none;fill-rule:evenodd;fill:rgb(27.45098%,45.490196%,59.215686%);fill-opacity:1;" d="M 42.03125 1.183594 C 42.328125 3.804688 41.136719 5.804688 37.5625 8.691406 C 34.832031 10.894531 33.175781 12.632812 32.84375 13.644531 C 32.363281 15.101562 32.816406 16.554688 34.386719 18.605469 C 35.273438 19.757812 37.609375 22.007812 37.929688 22.007812 C 38.023438 22.007812 37.78125 21.507812 37.390625 20.894531 C 37 20.285156 36.375 19.308594 36.003906 18.726562 C 34.054688 15.671875 34.582031 13.820312 38.320312 10.550781 C 40.496094 8.652344 41.589844 7.355469 42.445312 5.652344 C 43.191406 4.171875 43.242188 2.144531 42.566406 0.859375 C 42.316406 0.386719 42.0625 0 42.003906 0 C 41.945312 0 41.957031 0.53125 42.03125 1.183594 Z M 45.382812 8.6875 C 41.121094 10.203125 38.375 12.453125 37.988281 14.746094 C 37.804688 15.835938 38.339844 17.546875 39.199219 18.609375 C 40.640625 20.394531 40.808594 21.578125 39.792969 22.785156 C 39.070312 23.648438 39.183594 23.71875 40.175781 23.039062 C 42.039062 21.753906 42.921875 20.167969 42.53125 18.808594 C 42.429688 18.449219 42.007812 17.699219 41.597656 17.136719 C 40.597656 15.773438 40.269531 14.785156 40.519531 13.886719 C 40.78125 12.929688 42.765625 11.074219 45.09375 9.605469 C 47.449219 8.117188 47.507812 7.929688 45.382812 8.6875 Z M 11.992188 19.300781 C 11.769531 19.347656 11.105469 19.484375 10.515625 19.601562 C 8.21875 20.070312 6.46875 21.171875 5.488281 22.769531 C 4.257812 24.769531 3.878906 26.816406 3.753906 32.101562 C 3.683594 35.09375 3.605469 35.808594 3.238281 36.773438 C 2.742188 38.089844 1.496094 39.605469 0.613281 39.972656 C 0.0898438 40.1875 0 40.332031 0 40.960938 C 0 41.601562 0.0976562 41.753906 0.71875 42.085938 C 1.683594 42.609375 2.570312 43.65625 3.195312 45.011719 C 3.675781 46.058594 3.71875 46.414062 3.855469 50.371094 C 3.941406 52.871094 4.128906 55.230469 4.316406 56.121094 C 5.25 60.574219 7.839844 62.621094 12.941406 62.929688 C 14.523438 63.027344 14.988281 62.996094 15.121094 62.777344 C 15.246094 62.574219 15.023438 62.367188 14.292969 61.988281 C 12.511719 61.074219 11.128906 59.382812 10.5625 57.4375 C 10.464844 57.105469 10.386719 54.242188 10.382812 51.078125 C 10.378906 45.347656 10.375 45.320312 9.875 44.316406 C 9.257812 43.082031 7.769531 41.90625 6.410156 41.582031 C 5.113281 41.269531 5.058594 40.695312 6.296875 40.371094 C 7.445312 40.066406 8.867188 39.128906 9.414062 38.316406 C 10.3125 36.972656 10.480469 35.632812 10.429688 30.183594 C 10.378906 25.351562 10.398438 25.085938 10.832031 24.007812 C 11.480469 22.414062 12.484375 21.328125 14.023438 20.570312 C 15.800781 19.691406 15.734375 19.292969 13.800781 19.25 C 13.027344 19.234375 12.210938 19.257812 11.992188 19.300781 Z M 63.761719 19.417969 C 63.675781 19.558594 63.765625 19.75 63.976562 19.875 C 66.601562 21.429688 67.3125 22.171875 68.046875 24.144531 C 68.371094 25.019531 68.414062 25.8125 68.417969 30.992188 C 68.417969 36.496094 68.445312 36.898438 68.839844 37.753906 C 69.503906 39.191406 71.605469 40.765625 72.882812 40.777344 C 73.320312 40.78125 73.652344 41.273438 73.445312 41.609375 C 73.382812 41.710938 73.132812 41.792969 72.890625 41.792969 C 72.121094 41.796875 70.429688 42.722656 69.800781 43.484375 C 68.613281 44.925781 68.449219 45.929688 68.433594 51.886719 C 68.421875 56.980469 68.398438 57.292969 67.957031 58.382812 C 67.386719 59.800781 66.222656 60.992188 64.722656 61.695312 C 63.34375 62.34375 63.445312 62.257812 63.601562 62.660156 C 63.703125 62.925781 64.015625 62.988281 65.167969 62.988281 C 68.199219 62.980469 71.242188 61.902344 72.652344 60.335938 C 74.339844 58.46875 74.886719 56.21875 75.136719 50.171875 C 75.277344 46.652344 75.359375 46.003906 75.75 45.121094 C 76.257812 43.980469 77.570312 42.539062 78.425781 42.183594 C 78.894531 41.988281 79 41.820312 79 41.265625 C 79 40.679688 78.890625 40.535156 78.210938 40.183594 C 77.199219 39.667969 76.058594 38.273438 75.535156 36.90625 C 75.191406 36.011719 75.097656 35.109375 74.957031 31.394531 C 74.769531 26.480469 74.519531 25.054688 73.515625 23.171875 C 72.484375 21.226562 70.734375 20.09375 67.84375 19.496094 C 66.023438 19.117188 63.96875 19.082031 63.761719 19.417969 Z M 24.285156 20.257812 C 20.265625 21.296875 18.042969 26.21875 19.027344 31.898438 C 19.679688 35.660156 21.296875 40.394531 23.78125 45.832031 C 25.535156 49.667969 26.191406 50.90625 26.40625 50.773438 C 26.515625 50.703125 26.539062 50.800781 26.464844 51 C 26.367188 51.253906 26.402344 51.304688 26.597656 51.183594 C 26.773438 51.074219 26.816406 51.09375 26.726562 51.242188 C 26.589844 51.460938 27.101562 52.695312 27.324219 52.695312 C 27.382812 52.695312 27.367188 52.589844 27.289062 52.460938 C 27.199219 52.316406 27.234375 52.28125 27.378906 52.375 C 27.511719 52.453125 27.566406 52.601562 27.503906 52.703125 C 27.390625 52.886719 27.933594 54.105469 28.128906 54.105469 C 28.191406 54.105469 28.171875 54.003906 28.09375 53.875 C 28.003906 53.726562 28.039062 53.695312 28.1875 53.789062 C 28.316406 53.867188 28.371094 54.015625 28.308594 54.117188 C 28.132812 54.402344 28.804688 55.550781 29.058594 55.394531 C 29.191406 55.3125 29.226562 55.347656 29.148438 55.476562 C 28.964844 55.769531 30.796875 58.699219 32.894531 61.472656 C 34.78125 63.96875 35.386719 64.375 36.117188 63.644531 L 36.554688 63.207031 L 36.199219 60.652344 C 36.007812 59.246094 35.792969 57.171875 35.730469 56.039062 C 35.601562 53.773438 35.777344 53.0625 37.105469 50.421875 C 37.785156 49.078125 39.5625 46.34375 39.894531 46.136719 C 40.003906 46.070312 40.347656 46.148438 40.65625 46.308594 C 42.714844 47.375 44.074219 50.542969 44.550781 55.382812 C 44.855469 58.503906 44.867188 58.550781 45.417969 58.550781 C 46.023438 58.550781 46.234375 58.289062 47.832031 55.574219 C 51.199219 49.847656 53.707031 43.847656 55.316406 37.652344 C 55.992188 35.058594 56.621094 31.664062 56.605469 30.6875 C 56.601562 30.410156 56.703125 29.683594 56.832031 29.074219 C 56.960938 28.464844 57.039062 27.148438 57 26.148438 C 56.945312 24.648438 56.832031 24.125 56.367188 23.171875 C 55.421875 21.246094 53.566406 20.335938 50.585938 20.335938 C 48.621094 20.335938 47.523438 20.65625 44.035156 22.246094 C 40.988281 23.632812 40.25 23.84375 38.390625 23.875 C 36.957031 23.898438 36.589844 23.820312 35.066406 23.171875 C 34.125 22.769531 33.371094 22.351562 33.394531 22.246094 C 33.429688 22.089844 32.644531 21.910156 31.296875 21.761719 C 31.164062 21.75 31.003906 21.613281 30.945312 21.457031 C 30.886719 21.304688 30.316406 20.945312 29.679688 20.660156 C 28.28125 20.039062 25.835938 19.855469 24.285156 20.257812 Z M 28.5625 21.144531 C 28.144531 21.1875 27.507812 21.1875 27.152344 21.144531 C 26.792969 21.097656 27.136719 21.0625 27.910156 21.0625 C 28.6875 21.0625 28.980469 21.101562 28.5625 21.144531 Z M 25.695312 21.722656 C 25.324219 21.820312 23.980469 21.925781 23.980469 21.859375 C 23.980469 21.675781 24.914062 21.480469 25.375 21.570312 C 25.660156 21.625 25.804688 21.691406 25.695312 21.722656 Z M 27.867188 21.734375 C 27.730469 21.789062 27.457031 21.792969 27.261719 21.742188 C 27.066406 21.691406 27.175781 21.644531 27.507812 21.640625 C 27.839844 21.636719 28 21.679688 27.867188 21.734375 Z M 28.964844 21.925781 C 28.898438 21.992188 28.726562 22 28.578125 21.941406 C 28.417969 21.878906 28.464844 21.828125 28.703125 21.820312 C 28.914062 21.8125 29.03125 21.859375 28.964844 21.925781 Z M 29.773438 22.128906 C 29.703125 22.195312 29.53125 22.203125 29.386719 22.144531 C 29.226562 22.078125 29.273438 22.03125 29.507812 22.023438 C 29.71875 22.011719 29.839844 22.0625 29.773438 22.128906 Z M 25.648438 22.339844 C 25.511719 22.394531 25.238281 22.398438 25.042969 22.347656 C 24.847656 22.296875 24.960938 22.25 25.292969 22.246094 C 25.625 22.242188 25.785156 22.285156 25.648438 22.339844 Z M 27.257812 22.542969 C 27.117188 22.601562 26.890625 22.601562 26.753906 22.542969 C 26.613281 22.488281 26.726562 22.441406 27.003906 22.441406 C 27.28125 22.441406 27.394531 22.488281 27.257812 22.542969 Z M 28.160156 22.734375 C 28.09375 22.800781 27.917969 22.808594 27.773438 22.75 C 27.613281 22.683594 27.660156 22.636719 27.894531 22.628906 C 28.109375 22.621094 28.226562 22.667969 28.160156 22.734375 Z M 48.421875 22.945312 C 48.285156 23 48.011719 23.003906 47.816406 22.953125 C 47.621094 22.902344 47.734375 22.855469 48.066406 22.851562 C 48.398438 22.847656 48.558594 22.890625 48.421875 22.945312 Z M 50.125 22.9375 C 50.058594 23.003906 49.886719 23.011719 49.742188 22.953125 C 49.578125 22.886719 49.628906 22.839844 49.863281 22.828125 C 50.074219 22.820312 50.195312 22.867188 50.125 22.9375 Z M 22.972656 23.09375 C 22.972656 23.132812 22.816406 23.292969 22.621094 23.445312 C 22.300781 23.695312 22.296875 23.6875 22.546875 23.367188 C 22.808594 23.03125 22.972656 22.925781 22.972656 23.09375 Z M 32.648438 23.21875 C 32.8125 23.324219 32.859375 23.414062 32.75 23.414062 C 32.636719 23.414062 32.410156 23.324219 32.246094 23.21875 C 32.078125 23.109375 32.035156 23.023438 32.144531 23.023438 C 32.253906 23.023438 32.480469 23.109375 32.648438 23.21875 Z M 47.105469 23.136719 C 47.035156 23.203125 46.863281 23.210938 46.71875 23.152344 C 46.554688 23.089844 46.605469 23.042969 46.839844 23.03125 C 47.050781 23.023438 47.171875 23.070312 47.105469 23.136719 Z M 35.828125 24.722656 C 36.414062 24.914062 37.410156 25.382812 38.042969 25.765625 C 39.773438 26.8125 41.074219 27.132812 43.632812 27.144531 C 44.851562 27.148438 46.347656 27.085938 46.957031 27 C 48.394531 26.796875 47.996094 27.082031 45.847656 27.789062 C 44.542969 28.21875 43.855469 28.320312 42.21875 28.320312 C 39.964844 28.324219 39.003906 28.066406 37.089844 26.941406 C 36.4375 26.558594 35.761719 26.246094 35.585938 26.246094 C 35.410156 26.246094 35.269531 26.15625 35.269531 26.050781 C 35.269531 25.941406 35.109375 25.90625 34.914062 25.96875 C 34.625 26.0625 34.613281 26.046875 34.859375 25.871094 C 35.0625 25.726562 35.25 25.730469 35.460938 25.878906 C 35.632812 26 35.5 25.828125 35.167969 25.5 C 34.835938 25.167969 34.335938 24.644531 34.058594 24.335938 L 33.554688 23.773438 L 34.160156 24.074219 C 34.492188 24.238281 35.242188 24.53125 35.828125 24.722656 Z M 21.96875 24.136719 C 21.96875 24.160156 21.847656 24.277344 21.699219 24.402344 C 21.496094 24.566406 21.429688 24.558594 21.429688 24.359375 C 21.429688 24.210938 21.550781 24.09375 21.699219 24.09375 C 21.847656 24.09375 21.96875 24.113281 21.96875 24.136719 Z M 34.058594 25.148438 C 34.058594 25.207031 33.878906 25.152344 33.65625 25.035156 C 33.433594 24.914062 33.253906 24.773438 33.253906 24.71875 C 33.253906 24.664062 33.433594 24.714844 33.65625 24.832031 C 33.878906 24.953125 34.058594 25.09375 34.058594 25.148438 Z M 30.882812 25.179688 C 30.523438 25.226562 29.933594 25.226562 29.574219 25.179688 C 29.214844 25.136719 29.507812 25.097656 30.230469 25.097656 C 30.949219 25.097656 31.246094 25.136719 30.882812 25.179688 Z M 38.035156 25.15625 C 37.96875 25.222656 37.792969 25.230469 37.648438 25.171875 C 37.488281 25.109375 37.535156 25.058594 37.769531 25.050781 C 37.984375 25.042969 38.101562 25.089844 38.035156 25.15625 Z M 32.390625 25.359375 C 32.324219 25.425781 32.152344 25.433594 32.003906 25.375 C 31.84375 25.308594 31.894531 25.261719 32.128906 25.253906 C 32.339844 25.242188 32.457031 25.292969 32.390625 25.359375 Z M 33.398438 25.558594 C 33.332031 25.628906 33.160156 25.632812 33.011719 25.578125 C 32.851562 25.511719 32.898438 25.464844 33.136719 25.453125 C 33.347656 25.445312 33.464844 25.492188 33.398438 25.558594 Z M 25.59375 26.726562 C 25.59375 26.769531 25.4375 26.925781 25.242188 27.078125 C 24.921875 27.332031 24.914062 27.324219 25.164062 27.003906 C 25.429688 26.667969 25.59375 26.558594 25.59375 26.726562 Z M 20.289062 27.292969 C 20.226562 27.453125 20.179688 27.40625 20.167969 27.171875 C 20.160156 26.957031 20.207031 26.839844 20.273438 26.90625 C 20.339844 26.972656 20.347656 27.148438 20.289062 27.292969 Z M 53.351562 29.117188 C 53.308594 29.59375 53.273438 29.253906 53.273438 28.367188 C 53.273438 27.476562 53.308594 27.089844 53.351562 27.503906 C 53.394531 27.917969 53.394531 28.644531 53.351562 29.117188 Z M 20.097656 29.824219 C 20.054688 30.242188 20.019531 29.949219 20.019531 29.171875 C 20.015625 28.394531 20.050781 28.054688 20.097656 28.410156 C 20.140625 28.769531 20.140625 29.40625 20.097656 29.824219 Z M 53.140625 31.238281 C 53.089844 31.433594 53.046875 31.324219 53.042969 30.992188 C 53.039062 30.65625 53.078125 30.496094 53.132812 30.632812 C 53.191406 30.769531 53.195312 31.042969 53.140625 31.238281 Z M 23.515625 31.644531 C 23.464844 31.839844 23.421875 31.726562 23.417969 31.394531 C 23.414062 31.0625 23.453125 30.902344 23.507812 31.039062 C 23.566406 31.175781 23.570312 31.445312 23.515625 31.644531 Z M 20.292969 32.25 C 20.242188 32.445312 20.195312 32.332031 20.191406 32 C 20.1875 31.667969 20.230469 31.507812 20.285156 31.644531 C 20.339844 31.78125 20.34375 32.050781 20.292969 32.25 Z M 20.488281 33.765625 C 20.433594 33.90625 20.386719 33.792969 20.386719 33.515625 C 20.386719 33.238281 20.433594 33.125 20.488281 33.261719 C 20.542969 33.402344 20.542969 33.628906 20.488281 33.765625 Z M 20.691406 34.976562 C 20.632812 35.117188 20.589844 35.003906 20.589844 34.726562 C 20.589844 34.449219 20.632812 34.335938 20.691406 34.472656 C 20.746094 34.613281 20.746094 34.839844 20.691406 34.976562 Z M 23.519531 35.78125 C 23.472656 36.035156 23.429688 35.875 23.429688 35.433594 C 23.425781 34.988281 23.464844 34.78125 23.515625 34.976562 C 23.566406 35.167969 23.566406 35.53125 23.519531 35.78125 Z M 20.894531 35.976562 C 20.832031 36.136719 20.785156 36.089844 20.773438 35.851562 C 20.765625 35.640625 20.8125 35.519531 20.878906 35.585938 C 20.945312 35.65625 20.953125 35.828125 20.894531 35.976562 Z M 23.710938 37.601562 C 23.65625 37.742188 23.609375 37.628906 23.609375 37.351562 C 23.609375 37.074219 23.65625 36.960938 23.710938 37.097656 C 23.769531 37.238281 23.769531 37.464844 23.710938 37.601562 Z M 51.351562 37.859375 C 51.289062 37.921875 51.175781 37.808594 51.101562 37.609375 C 50.992188 37.324219 51.015625 37.300781 51.214844 37.5 C 51.351562 37.636719 51.414062 37.796875 51.351562 37.859375 Z M 23.917969 38.597656 C 23.855469 38.761719 23.804688 38.710938 23.796875 38.476562 C 23.789062 38.265625 23.835938 38.144531 23.902344 38.210938 C 23.96875 38.28125 23.976562 38.453125 23.917969 38.597656 Z M 50.988281 39.457031 C 50.988281 39.507812 50.898438 39.601562 50.785156 39.671875 C 50.675781 39.742188 50.585938 39.699219 50.585938 39.582031 C 50.585938 39.464844 50.675781 39.367188 50.785156 39.367188 C 50.898438 39.367188 50.988281 39.410156 50.988281 39.457031 Z M 48.515625 39.691406 C 48.449219 39.761719 48.273438 39.765625 48.128906 39.707031 C 47.96875 39.644531 48.015625 39.597656 48.25 39.585938 C 48.460938 39.578125 48.582031 39.625 48.515625 39.691406 Z M 46.941406 40.859375 C 46.734375 41.046875 43.933594 42.390625 43.933594 42.300781 C 43.933594 42.179688 46.578125 40.804688 46.839844 40.792969 C 46.941406 40.785156 46.984375 40.816406 46.941406 40.859375 Z M 43.128906 41.589844 C 42.960938 41.699219 42.734375 41.785156 42.625 41.785156 C 42.511719 41.785156 42.558594 41.699219 42.722656 41.589844 C 42.890625 41.480469 43.117188 41.394531 43.226562 41.394531 C 43.339844 41.394531 43.292969 41.480469 43.128906 41.589844 Z M 39.097656 44.316406 C 38.269531 45.148438 37.550781 45.828125 37.496094 45.828125 C 37.4375 45.828125 38.070312 45.148438 38.894531 44.316406 C 39.722656 43.484375 40.441406 42.800781 40.496094 42.800781 C 40.554688 42.800781 39.921875 43.484375 39.097656 44.316406 Z M 42.722656 43.078125 C 42.722656 43.121094 42.566406 43.28125 42.371094 43.433594 C 42.050781 43.683594 42.046875 43.675781 42.296875 43.355469 C 42.558594 43.019531 42.722656 42.914062 42.722656 43.078125 Z M 41.71875 43.886719 C 41.71875 43.929688 41.558594 44.089844 41.363281 44.242188 C 41.042969 44.492188 41.039062 44.484375 41.289062 44.164062 C 41.550781 43.828125 41.71875 43.722656 41.71875 43.886719 Z M 40.507812 45.300781 C 40.507812 45.34375 40.347656 45.5 40.15625 45.652344 C 39.835938 45.90625 39.828125 45.898438 40.078125 45.578125 C 40.34375 45.242188 40.507812 45.132812 40.507812 45.300781 Z M 48.164062 46.195312 C 48.164062 46.285156 48.027344 46.535156 47.859375 46.75 C 47.578125 47.113281 47.570312 47.101562 47.792969 46.585938 C 48.027344 46.03125 48.164062 45.886719 48.164062 46.195312 Z M 27.601562 49.566406 C 27.601562 49.675781 27.515625 49.628906 27.40625 49.464844 C 27.300781 49.296875 27.210938 49.070312 27.210938 48.960938 C 27.210938 48.847656 27.300781 48.894531 27.40625 49.058594 C 27.515625 49.226562 27.601562 49.453125 27.601562 49.566406 Z M 47.359375 48.933594 C 47.359375 48.976562 47.199219 49.136719 47.007812 49.289062 C 46.6875 49.539062 46.679688 49.53125 46.929688 49.210938 C 47.195312 48.875 47.359375 48.769531 47.359375 48.933594 Z M 46.753906 49.742188 C 46.753906 49.785156 46.628906 49.925781 46.472656 50.054688 C 46.253906 50.234375 46.152344 50.234375 46.035156 50.046875 C 45.945312 49.898438 45.972656 49.859375 46.105469 49.941406 C 46.226562 50.015625 46.382812 49.984375 46.449219 49.871094 C 46.574219 49.667969 46.753906 49.59375 46.753906 49.742188 Z M 27.886719 50.179688 C 27.957031 50.359375 27.921875 50.441406 27.808594 50.371094 C 27.699219 50.304688 27.609375 50.160156 27.609375 50.058594 C 27.609375 49.765625 27.753906 49.832031 27.886719 50.179688 Z M 45.949219 50.75 C 45.949219 50.792969 45.8125 50.941406 45.640625 51.082031 C 45.386719 51.296875 45.355469 51.285156 45.460938 51.007812 C 45.570312 50.722656 45.949219 50.523438 45.949219 50.75 Z M 29.652344 53.046875 C 29.902344 53.367188 29.894531 53.375 29.574219 53.125 C 29.238281 52.859375 29.132812 52.695312 29.296875 52.695312 C 29.339844 52.695312 29.5 52.851562 29.652344 53.046875 Z M 30.429688 54.007812 C 30.691406 54.285156 30.859375 54.511719 30.804688 54.511719 C 30.75 54.511719 30.488281 54.285156 30.230469 54.007812 C 29.96875 53.730469 29.800781 53.5 29.855469 53.5 C 29.914062 53.5 30.171875 53.730469 30.429688 54.007812 Z M 30.054688 56.679688 C 30.304688 57 30.296875 57.007812 29.976562 56.757812 C 29.785156 56.605469 29.625 56.445312 29.625 56.40625 C 29.625 56.238281 29.789062 56.34375 30.054688 56.679688 Z M 33.855469 58.222656 C 33.855469 58.261719 33.699219 58.421875 33.503906 58.574219 C 33.183594 58.824219 33.179688 58.820312 33.429688 58.5 C 33.691406 58.160156 33.855469 58.054688 33.855469 58.222656 Z M 32.59375 58.871094 C 32.527344 58.941406 32.351562 58.945312 32.207031 58.890625 C 32.046875 58.824219 32.09375 58.777344 32.328125 58.765625 C 32.542969 58.757812 32.660156 58.804688 32.59375 58.871094 Z M 32.59375 58.871094 "/>
<path style=" stroke:none;fill-rule:evenodd;fill:rgb(6.27451%,29.411765%,47.45098%);fill-opacity:1;" d="M 42.03125 1.183594 C 42.328125 3.804688 41.136719 5.804688 37.5625 8.691406 C 34.832031 10.894531 33.175781 12.632812 32.84375 13.644531 C 32.363281 15.101562 32.816406 16.554688 34.386719 18.605469 C 35.273438 19.757812 37.609375 22.007812 37.929688 22.007812 C 38.023438 22.007812 37.78125 21.507812 37.390625 20.894531 C 37 20.285156 36.375 19.308594 36.003906 18.726562 C 34.054688 15.671875 34.582031 13.820312 38.320312 10.550781 C 40.496094 8.652344 41.589844 7.355469 42.445312 5.652344 C 43.191406 4.171875 43.242188 2.144531 42.566406 0.859375 C 42.316406 0.386719 42.0625 0 42.003906 0 C 41.945312 0 41.957031 0.53125 42.03125 1.183594 Z M 45.382812 8.6875 C 41.121094 10.203125 38.375 12.453125 37.988281 14.746094 C 37.804688 15.835938 38.339844 17.546875 39.199219 18.609375 C 40.640625 20.394531 40.808594 21.578125 39.792969 22.785156 C 39.070312 23.648438 39.183594 23.71875 40.175781 23.039062 C 42.039062 21.753906 42.921875 20.167969 42.53125 18.808594 C 42.429688 18.449219 42.007812 17.699219 41.597656 17.136719 C 40.597656 15.773438 40.269531 14.785156 40.519531 13.886719 C 40.78125 12.929688 42.765625 11.074219 45.09375 9.605469 C 47.449219 8.117188 47.507812 7.929688 45.382812 8.6875 Z M 11.992188 19.300781 C 11.769531 19.347656 11.105469 19.484375 10.515625 19.601562 C 8.21875 20.070312 6.46875 21.171875 5.488281 22.769531 C 4.257812 24.769531 3.878906 26.816406 3.753906 32.101562 C 3.683594 35.09375 3.605469 35.808594 3.238281 36.773438 C 2.742188 38.089844 1.496094 39.605469 0.613281 39.972656 C 0.0898438 40.1875 0 40.332031 0 40.960938 C 0 41.601562 0.0976562 41.753906 0.71875 42.085938 C 1.683594 42.609375 2.570312 43.65625 3.195312 45.011719 C 3.675781 46.058594 3.71875 46.414062 3.855469 50.371094 C 3.941406 52.871094 4.128906 55.230469 4.316406 56.121094 C 5.25 60.574219 7.839844 62.621094 12.941406 62.929688 C 14.523438 63.027344 14.988281 62.996094 15.121094 62.777344 C 15.246094 62.574219 15.023438 62.367188 14.292969 61.988281 C 12.511719 61.074219 11.128906 59.382812 10.5625 57.4375 C 10.464844 57.105469 10.386719 54.242188 10.382812 51.078125 C 10.378906 45.347656 10.375 45.320312 9.875 44.316406 C 9.257812 43.082031 7.769531 41.90625 6.410156 41.582031 C 5.113281 41.269531 5.058594 40.695312 6.296875 40.371094 C 7.445312 40.066406 8.867188 39.128906 9.414062 38.316406 C 10.3125 36.972656 10.480469 35.632812 10.429688 30.183594 C 10.378906 25.351562 10.398438 25.085938 10.832031 24.007812 C 11.480469 22.414062 12.484375 21.328125 14.023438 20.570312 C 15.800781 19.691406 15.734375 19.292969 13.800781 19.25 C 13.027344 19.234375 12.210938 19.257812 11.992188 19.300781 Z M 63.761719 19.417969 C 63.675781 19.558594 63.765625 19.75 63.976562 19.875 C 66.601562 21.429688 67.3125 22.171875 68.046875 24.144531 C 68.371094 25.019531 68.414062 25.8125 68.417969 30.992188 C 68.417969 36.496094 68.445312 36.898438 68.839844 37.753906 C 69.503906 39.191406 71.605469 40.765625 72.882812 40.777344 C 73.320312 40.78125 73.652344 41.273438 73.445312 41.609375 C 73.382812 41.710938 73.132812 41.792969 72.890625 41.792969 C 72.121094 41.796875 70.429688 42.722656 69.800781 43.484375 C 68.613281 44.925781 68.449219 45.929688 68.433594 51.886719 C 68.421875 56.980469 68.398438 57.292969 67.957031 58.382812 C 67.386719 59.800781 66.222656 60.992188 64.722656 61.695312 C 63.34375 62.34375 63.445312 62.257812 63.601562 62.660156 C 63.703125 62.925781 64.015625 62.988281 65.167969 62.988281 C 68.199219 62.980469 71.242188 61.902344 72.652344 60.335938 C 74.339844 58.46875 74.886719 56.21875 75.136719 50.171875 C 75.277344 46.652344 75.359375 46.003906 75.75 45.121094 C 76.257812 43.980469 77.570312 42.539062 78.425781 42.183594 C 78.894531 41.988281 79 41.820312 79 41.265625 C 79 40.679688 78.890625 40.535156 78.210938 40.183594 C 77.199219 39.667969 76.058594 38.273438 75.535156 36.90625 C 75.191406 36.011719 75.097656 35.109375 74.957031 31.394531 C 74.769531 26.480469 74.519531 25.054688 73.515625 23.171875 C 72.484375 21.226562 70.734375 20.09375 67.84375 19.496094 C 66.023438 19.117188 63.96875 19.082031 63.761719 19.417969 Z M 24.285156 20.257812 C 20.265625 21.296875 18.042969 26.21875 19.027344 31.898438 C 19.679688 35.660156 21.296875 40.394531 23.78125 45.832031 C 25.621094 49.859375 26.1875 50.90625 26.4375 50.753906 C 26.578125 50.664062 26.609375 50.703125 26.515625 50.855469 C 26.234375 51.308594 30.203125 57.910156 32.898438 61.472656 C 34.78125 63.96875 35.386719 64.375 36.117188 63.644531 L 36.554688 63.207031 L 36.203125 60.6875 C 36.011719 59.300781 35.800781 57.25 35.734375 56.125 C 35.652344 54.792969 35.542969 54.175781 35.421875 54.347656 C 35.1875 54.683594 35.28125 54.421875 35.757812 53.402344 C 35.964844 52.957031 36.476562 51.851562 36.894531 50.945312 C 37.3125 50.035156 38.132812 48.582031 38.722656 47.714844 C 39.3125 46.84375 39.773438 46.0625 39.746094 45.980469 C 39.679688 45.753906 42.34375 43.101562 42.925781 42.820312 C 43.335938 42.621094 43.316406 42.660156 42.824219 43.023438 C 42.492188 43.273438 41.691406 44.019531 41.042969 44.6875 L 39.863281 45.902344 L 40.542969 46.25 C 42.71875 47.367188 44.0625 50.4375 44.550781 55.382812 C 44.855469 58.503906 44.867188 58.550781 45.417969 58.550781 C 46.023438 58.550781 46.234375 58.289062 47.832031 55.574219 C 51.199219 49.847656 53.707031 43.847656 55.316406 37.652344 C 56.128906 34.535156 56.699219 31.230469 56.527344 30.679688 C 56.457031 30.464844 56.472656 30.171875 56.5625 30.035156 C 56.851562 29.574219 56.933594 28.796875 56.933594 26.550781 C 56.933594 24.523438 56.882812 24.226562 56.367188 23.171875 C 55.421875 21.246094 53.566406 20.335938 50.585938 20.335938 C 48.621094 20.335938 47.523438 20.65625 44.035156 22.246094 C 40.984375 23.632812 40.25 23.84375 38.390625 23.875 C 36.878906 23.898438 36.621094 23.832031 34.261719 22.851562 C 32.875 22.277344 31.539062 21.804688 31.289062 21.804688 C 31.03125 21.804688 30.855469 21.695312 30.882812 21.550781 C 30.914062 21.414062 30.398438 21.039062 29.738281 20.71875 C 28.324219 20.03125 25.933594 19.828125 24.285156 20.257812 Z M 28.5625 21.144531 C 28.144531 21.1875 27.507812 21.1875 27.152344 21.144531 C 26.792969 21.097656 27.136719 21.0625 27.910156 21.0625 C 28.6875 21.0625 28.980469 21.101562 28.5625 21.144531 Z M 26.046875 21.332031 C 25.910156 21.386719 25.683594 21.386719 25.542969 21.332031 C 25.40625 21.277344 25.519531 21.230469 25.796875 21.230469 C 26.074219 21.230469 26.1875 21.277344 26.046875 21.332031 Z M 29.972656 21.320312 C 29.90625 21.386719 29.734375 21.394531 29.585938 21.335938 C 29.425781 21.273438 29.472656 21.222656 29.710938 21.214844 C 29.921875 21.207031 30.039062 21.253906 29.972656 21.320312 Z M 25.492188 21.589844 C 25.800781 21.710938 25.664062 21.769531 24.9375 21.828125 C 23.871094 21.917969 23.773438 21.875 24.4375 21.609375 C 24.984375 21.386719 24.988281 21.386719 25.492188 21.589844 Z M 27.960938 21.742188 C 27.769531 21.792969 27.449219 21.792969 27.257812 21.742188 C 27.0625 21.691406 27.222656 21.648438 27.609375 21.648438 C 27.996094 21.648438 28.15625 21.691406 27.960938 21.742188 Z M 29.523438 22.007812 C 30.039062 22.226562 29.507812 22.226562 28.820312 22.007812 C 28.414062 21.875 28.394531 21.84375 28.71875 21.839844 C 28.941406 21.835938 29.300781 21.910156 29.523438 22.007812 Z M 25.648438 22.339844 C 25.511719 22.394531 25.238281 22.398438 25.042969 22.347656 C 24.847656 22.296875 24.960938 22.25 25.292969 22.246094 C 25.625 22.242188 25.785156 22.285156 25.648438 22.339844 Z M 27.261719 22.542969 C 27.125 22.597656 26.851562 22.601562 26.65625 22.550781 C 26.460938 22.5 26.570312 22.453125 26.90625 22.449219 C 27.238281 22.445312 27.398438 22.488281 27.261719 22.542969 Z M 23.371094 22.945312 C 23.097656 23.128906 22.546875 23.585938 22.152344 23.960938 C 21.664062 24.425781 21.429688 24.546875 21.429688 24.335938 C 21.429688 24.164062 21.472656 24.066406 21.523438 24.121094 C 21.574219 24.171875 22.027344 23.851562 22.527344 23.414062 C 23.027344 22.972656 23.53125 22.613281 23.652344 22.613281 C 23.773438 22.613281 23.644531 22.761719 23.371094 22.945312 Z M 28.160156 22.734375 C 28.09375 22.800781 27.917969 22.808594 27.773438 22.75 C 27.613281 22.683594 27.660156 22.636719 27.894531 22.628906 C 28.109375 22.621094 28.226562 22.667969 28.160156 22.734375 Z M 32.246094 23.015625 C 32.632812 23.230469 32.859375 23.402344 32.75 23.402344 C 32.636719 23.402344 32.230469 23.230469 31.84375 23.015625 C 31.453125 22.804688 31.226562 22.628906 31.339844 22.628906 C 31.449219 22.628906 31.855469 22.804688 32.246094 23.015625 Z M 28.964844 22.9375 C 28.898438 23.003906 28.726562 23.011719 28.578125 22.953125 C 28.417969 22.886719 28.464844 22.839844 28.703125 22.828125 C 28.914062 22.820312 29.03125 22.867188 28.964844 22.9375 Z M 48.316406 22.953125 C 48.125 23.003906 47.804688 23.003906 47.613281 22.953125 C 47.417969 22.902344 47.578125 22.859375 47.964844 22.859375 C 48.351562 22.859375 48.511719 22.902344 48.316406 22.953125 Z M 50.230469 22.949219 C 50.09375 23.003906 49.867188 23.003906 49.726562 22.949219 C 49.589844 22.890625 49.703125 22.847656 49.980469 22.847656 C 50.257812 22.847656 50.371094 22.890625 50.230469 22.949219 Z M 30.027344 23.21875 C 30.394531 23.457031 30.078125 23.457031 29.523438 23.21875 C 29.257812 23.101562 29.222656 23.039062 29.421875 23.03125 C 29.589844 23.027344 29.863281 23.109375 30.027344 23.21875 Z M 47.007812 23.148438 C 46.867188 23.207031 46.640625 23.207031 46.503906 23.148438 C 46.363281 23.09375 46.476562 23.046875 46.753906 23.046875 C 47.03125 23.046875 47.144531 23.09375 47.007812 23.148438 Z M 51.519531 23.4375 C 51.890625 23.667969 52.195312 23.902344 52.195312 23.957031 C 52.195312 24.039062 50.945312 23.351562 50.601562 23.082031 C 50.277344 22.828125 50.964844 23.09375 51.519531 23.4375 Z M 46.097656 23.339844 C 46.027344 23.40625 45.855469 23.414062 45.710938 23.355469 C 45.550781 23.292969 45.597656 23.242188 45.832031 23.234375 C 46.042969 23.226562 46.164062 23.273438 46.097656 23.339844 Z M 32.855469 24.433594 C 33.515625 24.765625 34.058594 25.085938 34.058594 25.140625 C 34.058594 25.230469 31.660156 24.089844 31.457031 23.898438 C 31.207031 23.671875 31.792969 23.894531 32.855469 24.433594 Z M 36.71875 24.898438 C 37.015625 24.898438 37.242188 24.984375 37.222656 25.089844 C 37.148438 25.453125 39.660156 26.664062 41.140625 26.980469 C 42.574219 27.285156 45.757812 27.265625 47.460938 26.9375 C 48.503906 26.734375 47.617188 27.207031 45.847656 27.789062 C 44.542969 28.21875 43.855469 28.320312 42.21875 28.320312 C 39.964844 28.324219 39.003906 28.066406 37.089844 26.941406 C 36.4375 26.558594 35.761719 26.246094 35.585938 26.246094 C 35.410156 26.246094 35.269531 26.148438 35.269531 26.03125 C 35.269531 25.914062 35.382812 25.878906 35.519531 25.949219 C 35.660156 26.019531 35.5 25.8125 35.167969 25.488281 C 34.835938 25.164062 34.347656 24.664062 34.089844 24.375 L 33.613281 23.851562 L 34.894531 24.375 C 35.597656 24.660156 36.417969 24.894531 36.71875 24.898438 Z M 43.632812 24.226562 C 43.078125 24.464844 42.757812 24.464844 43.128906 24.226562 C 43.292969 24.121094 43.566406 24.035156 43.730469 24.042969 C 43.929688 24.050781 43.898438 24.113281 43.632812 24.226562 Z M 41.460938 24.953125 C 41.394531 25.023438 41.21875 25.027344 41.074219 24.96875 C 40.914062 24.90625 40.960938 24.859375 41.195312 24.847656 C 41.410156 24.839844 41.527344 24.886719 41.460938 24.953125 Z M 30.992188 25.179688 C 30.578125 25.226562 29.851562 25.226562 29.378906 25.183594 C 28.90625 25.140625 29.242188 25.105469 30.128906 25.105469 C 31.015625 25.101562 31.402344 25.136719 30.992188 25.179688 Z M 38.441406 25.171875 C 38.246094 25.226562 37.929688 25.226562 37.738281 25.171875 C 37.542969 25.125 37.703125 25.082031 38.089844 25.082031 C 38.476562 25.082031 38.636719 25.125 38.441406 25.171875 Z M 40.558594 25.167969 C 40.417969 25.222656 40.191406 25.222656 40.054688 25.167969 C 39.914062 25.113281 40.027344 25.066406 40.304688 25.066406 C 40.582031 25.066406 40.695312 25.113281 40.558594 25.167969 Z M 28.214844 25.378906 C 28.046875 25.441406 27.617188 25.609375 27.257812 25.757812 C 26.898438 25.902344 26.601562 25.976562 26.601562 25.921875 C 26.601562 25.773438 27.867188 25.25 28.214844 25.261719 C 28.484375 25.265625 28.484375 25.28125 28.214844 25.378906 Z M 32.496094 25.371094 C 32.359375 25.425781 32.132812 25.425781 31.992188 25.371094 C 31.855469 25.3125 31.96875 25.269531 32.246094 25.269531 C 32.523438 25.269531 32.636719 25.3125 32.496094 25.371094 Z M 35.148438 25.871094 C 35.089844 25.964844 34.953125 26.042969 34.839844 26.042969 C 34.730469 26.042969 34.699219 25.949219 34.769531 25.835938 C 34.847656 25.703125 34.71875 25.65625 34.429688 25.703125 C 34.167969 25.746094 34.074219 25.746094 34.210938 25.695312 C 34.351562 25.648438 34.414062 25.523438 34.351562 25.421875 C 34.285156 25.316406 34.464844 25.339844 34.746094 25.464844 C 35.027344 25.59375 35.207031 25.777344 35.148438 25.871094 Z M 53.1875 26.042969 C 53.179688 26.242188 53.117188 26.210938 53.003906 25.941406 C 52.765625 25.386719 52.765625 25.070312 53.003906 25.4375 C 53.109375 25.605469 53.191406 25.878906 53.1875 26.042969 Z M 33.398438 25.558594 C 33.332031 25.628906 33.160156 25.632812 33.011719 25.578125 C 32.851562 25.511719 32.898438 25.464844 33.136719 25.453125 C 33.347656 25.445312 33.464844 25.492188 33.398438 25.558594 Z M 20.582031 26.382812 C 20.34375 26.792969 20.285156 26.660156 20.480469 26.152344 C 20.550781 25.972656 20.648438 25.867188 20.699219 25.917969 C 20.753906 25.972656 20.699219 26.179688 20.582031 26.382812 Z M 26.289062 26.195312 C 26.183594 26.28125 25.820312 26.578125 25.484375 26.851562 C 24.902344 27.332031 24.902344 27.324219 25.53125 26.699219 C 25.894531 26.339844 26.257812 26.042969 26.335938 26.042969 C 26.417969 26.042969 26.394531 26.113281 26.289062 26.195312 Z M 53.351562 29.332031 C 53.308594 29.800781 53.273438 29.367188 53.277344 28.367188 C 53.277344 27.367188 53.3125 26.984375 53.351562 27.515625 C 53.394531 28.042969 53.394531 28.863281 53.351562 29.332031 Z M 20.285156 27.507812 C 20.230469 27.648438 20.183594 27.53125 20.183594 27.253906 C 20.183594 26.976562 20.230469 26.863281 20.285156 27.003906 C 20.34375 27.140625 20.34375 27.371094 20.285156 27.507812 Z M 20.097656 29.824219 C 20.054688 30.242188 20.019531 29.949219 20.019531 29.171875 C 20.015625 28.394531 20.050781 28.054688 20.097656 28.410156 C 20.140625 28.769531 20.140625 29.40625 20.097656 29.824219 Z M 23.714844 30.121094 C 23.652344 30.28125 23.605469 30.234375 23.59375 29.996094 C 23.585938 29.785156 23.632812 29.664062 23.699219 29.734375 C 23.769531 29.800781 23.773438 29.972656 23.714844 30.121094 Z M 53.140625 31.238281 C 53.089844 31.433594 53.046875 31.324219 53.042969 30.992188 C 53.039062 30.65625 53.078125 30.496094 53.132812 30.632812 C 53.191406 30.769531 53.195312 31.042969 53.140625 31.238281 Z M 23.515625 31.648438 C 23.464844 31.839844 23.425781 31.683594 23.425781 31.292969 C 23.425781 30.90625 23.464844 30.746094 23.515625 30.941406 C 23.566406 31.132812 23.566406 31.453125 23.515625 31.648438 Z M 56.363281 31.332031 C 56.300781 31.492188 56.253906 31.445312 56.242188 31.210938 C 56.234375 30.996094 56.28125 30.878906 56.347656 30.945312 C 56.414062 31.011719 56.421875 31.1875 56.363281 31.332031 Z M 20.296875 32.148438 C 20.246094 32.398438 20.207031 32.242188 20.203125 31.796875 C 20.203125 31.355469 20.242188 31.148438 20.292969 31.339844 C 20.34375 31.535156 20.34375 31.898438 20.296875 32.148438 Z M 56.164062 32.140625 C 56.097656 32.300781 56.050781 32.253906 56.042969 32.015625 C 56.03125 31.804688 56.082031 31.683594 56.148438 31.75 C 56.214844 31.820312 56.222656 31.992188 56.164062 32.140625 Z M 52.9375 32.339844 C 52.875 32.5 52.828125 32.453125 52.816406 32.21875 C 52.808594 32.003906 52.855469 31.886719 52.921875 31.953125 C 52.988281 32.019531 52.996094 32.195312 52.9375 32.339844 Z M 20.492188 33.664062 C 20.441406 33.859375 20.402344 33.699219 20.402344 33.3125 C 20.402344 32.921875 20.441406 32.765625 20.492188 32.960938 C 20.542969 33.152344 20.542969 33.472656 20.492188 33.664062 Z M 52.738281 33.148438 C 52.671875 33.308594 52.625 33.261719 52.617188 33.027344 C 52.605469 32.8125 52.65625 32.695312 52.722656 32.761719 C 52.789062 32.828125 52.796875 33.003906 52.738281 33.148438 Z M 52.535156 33.957031 C 52.472656 34.117188 52.421875 34.070312 52.414062 33.832031 C 52.40625 33.621094 52.453125 33.5 52.519531 33.570312 C 52.585938 33.636719 52.59375 33.808594 52.535156 33.957031 Z M 20.695312 34.875 C 20.644531 35.070312 20.597656 34.957031 20.59375 34.625 C 20.589844 34.292969 20.632812 34.128906 20.6875 34.265625 C 20.742188 34.402344 20.746094 34.675781 20.695312 34.875 Z M 23.523438 36.085938 C 23.476562 36.390625 23.4375 36.1875 23.433594 35.632812 C 23.433594 35.078125 23.472656 34.828125 23.519531 35.074219 C 23.566406 35.324219 23.570312 35.777344 23.523438 36.085938 Z M 52.132812 35.371094 C 52.066406 35.53125 52.019531 35.480469 52.011719 35.246094 C 52.003906 35.035156 52.050781 34.914062 52.117188 34.980469 C 52.183594 35.050781 52.191406 35.222656 52.132812 35.371094 Z M 20.890625 35.988281 C 20.835938 36.125 20.789062 36.011719 20.789062 35.734375 C 20.789062 35.457031 20.835938 35.34375 20.890625 35.484375 C 20.945312 35.621094 20.945312 35.847656 20.890625 35.988281 Z M 21.097656 36.78125 C 21.03125 36.941406 20.984375 36.894531 20.976562 36.660156 C 20.964844 36.449219 21.015625 36.328125 21.082031 36.394531 C 21.148438 36.460938 21.15625 36.636719 21.097656 36.78125 Z M 23.71875 37.699219 C 23.667969 37.894531 23.621094 37.785156 23.617188 37.449219 C 23.613281 37.117188 23.65625 36.957031 23.710938 37.09375 C 23.765625 37.230469 23.769531 37.503906 23.71875 37.699219 Z M 54.132812 37.6875 C 53.964844 38 53.820312 38.195312 53.816406 38.117188 C 53.804688 37.875 54.273438 36.9375 54.359375 37.027344 C 54.40625 37.074219 54.304688 37.371094 54.132812 37.6875 Z M 21.296875 37.589844 C 21.234375 37.75 21.1875 37.703125 21.175781 37.46875 C 21.167969 37.253906 21.214844 37.136719 21.28125 37.203125 C 21.347656 37.269531 21.355469 37.445312 21.296875 37.589844 Z M 51.351562 37.859375 C 51.289062 37.921875 51.175781 37.808594 51.101562 37.609375 C 50.992188 37.324219 51.015625 37.300781 51.214844 37.5 C 51.351562 37.636719 51.414062 37.796875 51.351562 37.859375 Z M 21.5 38.398438 C 21.4375 38.558594 21.386719 38.511719 21.378906 38.277344 C 21.371094 38.0625 21.417969 37.945312 21.484375 38.011719 C 21.550781 38.078125 21.558594 38.25 21.5 38.398438 Z M 23.914062 38.8125 C 23.859375 38.953125 23.8125 38.839844 23.8125 38.5625 C 23.8125 38.285156 23.859375 38.171875 23.914062 38.308594 C 23.96875 38.449219 23.96875 38.675781 23.914062 38.8125 Z M 22.136719 40.277344 C 22.136719 40.386719 22.011719 40.207031 21.859375 39.875 C 21.707031 39.539062 21.585938 39.132812 21.589844 38.964844 C 21.589844 38.796875 21.714844 38.980469 21.867188 39.367188 C 22.015625 39.757812 22.136719 40.167969 22.136719 40.277344 Z M 24.121094 39.609375 C 24.054688 39.769531 24.007812 39.722656 24 39.488281 C 23.988281 39.273438 24.035156 39.15625 24.105469 39.222656 C 24.171875 39.289062 24.179688 39.464844 24.121094 39.609375 Z M 49.777344 39.550781 C 49.777344 39.652344 49.597656 39.6875 49.375 39.628906 C 49.152344 39.570312 48.972656 39.488281 48.972656 39.445312 C 48.972656 39.402344 49.152344 39.367188 49.375 39.367188 C 49.597656 39.367188 49.777344 39.453125 49.777344 39.550781 Z M 50.988281 39.457031 C 50.988281 39.507812 50.898438 39.601562 50.785156 39.671875 C 50.675781 39.742188 50.585938 39.699219 50.585938 39.582031 C 50.585938 39.464844 50.675781 39.367188 50.785156 39.367188 C 50.898438 39.367188 50.988281 39.410156 50.988281 39.457031 Z M 48.621094 39.703125 C 48.480469 39.761719 48.253906 39.761719 48.117188 39.703125 C 47.976562 39.648438 48.089844 39.601562 48.367188 39.601562 C 48.644531 39.601562 48.757812 39.648438 48.621094 39.703125 Z M 24.320312 40.417969 C 24.257812 40.578125 24.210938 40.53125 24.199219 40.292969 C 24.191406 40.082031 24.238281 39.960938 24.304688 40.03125 C 24.371094 40.097656 24.378906 40.269531 24.320312 40.417969 Z M 47.105469 40.097656 C 47.035156 40.164062 46.863281 40.171875 46.71875 40.113281 C 46.554688 40.046875 46.605469 40 46.839844 39.992188 C 47.050781 39.980469 47.171875 40.03125 47.105469 40.097656 Z M 48.917969 40.296875 C 48.851562 40.367188 48.675781 40.371094 48.53125 40.316406 C 48.371094 40.25 48.417969 40.203125 48.652344 40.191406 C 48.867188 40.183594 48.984375 40.230469 48.917969 40.296875 Z M 45.546875 40.582031 C 45.378906 40.6875 45.152344 40.777344 45.042969 40.777344 C 44.929688 40.777344 44.976562 40.6875 45.144531 40.582031 C 45.308594 40.472656 45.535156 40.386719 45.648438 40.386719 C 45.757812 40.386719 45.710938 40.472656 45.546875 40.582031 Z M 52.5 40.984375 C 52.328125 41.316406 52.140625 41.589844 52.085938 41.589844 C 52.03125 41.589844 52.125 41.316406 52.296875 40.984375 C 52.46875 40.652344 52.65625 40.378906 52.710938 40.378906 C 52.765625 40.378906 52.671875 40.652344 52.5 40.984375 Z M 47.359375 40.726562 C 47.195312 40.789062 46.265625 41.238281 45.292969 41.722656 C 44.324219 42.207031 43.53125 42.558594 43.53125 42.503906 C 43.53125 42.335938 47.035156 40.601562 47.359375 40.605469 C 47.628906 40.613281 47.628906 40.625 47.359375 40.726562 Z M 44.539062 40.984375 C 44.371094 41.09375 44.144531 41.179688 44.035156 41.179688 C 43.921875 41.179688 43.96875 41.09375 44.136719 40.984375 C 44.300781 40.875 44.527344 40.789062 44.640625 40.789062 C 44.75 40.789062 44.703125 40.875 44.539062 40.984375 Z M 50.003906 41.726562 C 49.765625 42.136719 49.710938 42.003906 49.902344 41.496094 C 49.972656 41.316406 50.070312 41.210938 50.125 41.261719 C 50.175781 41.316406 50.121094 41.523438 50.003906 41.726562 Z M 24.722656 41.828125 C 24.660156 41.992188 24.613281 41.941406 24.601562 41.707031 C 24.59375 41.496094 24.640625 41.375 24.707031 41.441406 C 24.773438 41.507812 24.78125 41.683594 24.722656 41.828125 Z M 43.027344 41.628906 C 42.804688 41.753906 42.558594 41.957031 42.476562 42.078125 C 42.394531 42.199219 42.328125 42.226562 42.324219 42.140625 C 42.324219 42.054688 42.050781 42.125 41.71875 42.296875 C 41.382812 42.46875 41.113281 42.5625 41.113281 42.507812 C 41.113281 42.375 42.964844 41.40625 43.226562 41.402344 C 43.339844 41.402344 43.25 41.503906 43.027344 41.628906 Z M 22.96875 42.5 C 22.96875 42.609375 22.878906 42.5625 22.773438 42.398438 C 22.664062 42.230469 22.578125 42.003906 22.578125 41.894531 C 22.578125 41.78125 22.664062 41.828125 22.773438 41.992188 C 22.878906 42.160156 22.96875 42.386719 22.96875 42.5 Z M 51.59375 42.597656 C 51.472656 42.820312 51.332031 43.003906 51.277344 43.003906 C 51.21875 43.003906 51.273438 42.820312 51.390625 42.597656 C 51.507812 42.378906 51.652344 42.195312 51.707031 42.195312 C 51.761719 42.195312 51.710938 42.378906 51.59375 42.597656 Z M 40.894531 42.65625 C 40.847656 42.6875 40.039062 43.429688 39.097656 44.308594 L 37.382812 45.90625 L 39.019531 44.253906 C 39.917969 43.34375 40.726562 42.597656 40.816406 42.597656 C 40.90625 42.597656 40.941406 42.625 40.894531 42.65625 Z M 23.371094 43.507812 C 23.371094 43.617188 23.285156 43.574219 23.175781 43.40625 C 23.070312 43.242188 22.980469 43.011719 22.980469 42.902344 C 22.980469 42.792969 23.070312 42.835938 23.175781 43.003906 C 23.285156 43.167969 23.371094 43.398438 23.371094 43.507812 Z M 49.398438 43.339844 C 49.160156 43.75 49.105469 43.621094 49.300781 43.113281 C 49.367188 42.929688 49.46875 42.828125 49.519531 42.878906 C 49.570312 42.929688 49.515625 43.136719 49.398438 43.339844 Z M 50.988281 43.609375 C 50.867188 43.832031 50.726562 44.011719 50.671875 44.011719 C 50.617188 44.011719 50.667969 43.832031 50.785156 43.609375 C 50.90625 43.386719 51.046875 43.203125 51.101562 43.203125 C 51.15625 43.203125 51.105469 43.386719 50.988281 43.609375 Z M 23.773438 44.515625 C 23.773438 44.628906 23.6875 44.582031 23.578125 44.417969 C 23.472656 44.25 23.382812 44.023438 23.382812 43.910156 C 23.382812 43.800781 23.472656 43.847656 23.578125 44.011719 C 23.6875 44.179688 23.773438 44.40625 23.773438 44.515625 Z M 48.996094 44.351562 C 48.757812 44.761719 48.703125 44.628906 48.894531 44.121094 C 48.964844 43.941406 49.0625 43.835938 49.117188 43.886719 C 49.167969 43.941406 49.113281 44.148438 48.996094 44.351562 Z M 24.378906 45.929688 C 24.378906 46.042969 24.292969 45.996094 24.183594 45.828125 C 24.078125 45.664062 23.988281 45.4375 23.988281 45.324219 C 23.988281 45.214844 24.078125 45.257812 24.183594 45.425781 C 24.292969 45.59375 24.378906 45.820312 24.378906 45.929688 Z M 26.191406 45.929688 C 26.191406 46.042969 26.105469 45.996094 25.996094 45.828125 C 25.890625 45.664062 25.800781 45.4375 25.800781 45.324219 C 25.800781 45.214844 25.890625 45.257812 25.996094 45.425781 C 26.105469 45.59375 26.191406 45.820312 26.191406 45.929688 Z M 47.972656 46.617188 C 47.632812 47.292969 47.3125 47.847656 47.257812 47.847656 C 47.207031 47.847656 47.453125 47.261719 47.804688 46.542969 C 48.15625 45.824219 48.480469 45.269531 48.519531 45.3125 C 48.5625 45.351562 48.316406 45.9375 47.972656 46.617188 Z M 24.984375 47.34375 C 24.984375 47.453125 24.894531 47.410156 24.789062 47.242188 C 24.679688 47.078125 24.59375 46.847656 24.59375 46.738281 C 24.59375 46.628906 24.679688 46.671875 24.789062 46.839844 C 24.894531 47.003906 24.984375 47.234375 24.984375 47.34375 Z M 48.570312 47.242188 C 48.332031 47.574219 48.09375 47.847656 48.039062 47.847656 C 47.980469 47.847656 48.128906 47.574219 48.367188 47.242188 C 48.605469 46.910156 48.84375 46.636719 48.898438 46.636719 C 48.953125 46.636719 48.804688 46.910156 48.570312 47.242188 Z M 25.78125 49.160156 C 25.78125 49.273438 25.652344 49.136719 25.492188 48.859375 C 25.335938 48.582031 25.207031 48.261719 25.207031 48.152344 C 25.207031 48.039062 25.335938 48.175781 25.492188 48.453125 C 25.652344 48.730469 25.78125 49.050781 25.78125 49.160156 Z M 46.859375 48.644531 C 46.4375 49.464844 46.476562 49.59375 46.996094 49.140625 C 47.238281 48.929688 47 49.324219 46.460938 50.019531 C 45.925781 50.714844 45.457031 51.28125 45.417969 51.28125 C 45.382812 51.28125 45.457031 51.054688 45.582031 50.777344 C 45.707031 50.5 45.894531 50.269531 45.992188 50.269531 C 46.09375 50.269531 46.117188 50.179688 46.046875 50.0625 C 45.976562 49.949219 46.027344 49.882812 46.160156 49.914062 C 46.292969 49.945312 46.449219 49.84375 46.503906 49.6875 C 46.570312 49.507812 46.519531 49.460938 46.363281 49.558594 C 46.230469 49.640625 46.3125 49.335938 46.542969 48.878906 C 46.773438 48.421875 47.011719 48.050781 47.066406 48.050781 C 47.121094 48.050781 47.03125 48.320312 46.859375 48.644531 Z M 47.964844 48.125 C 47.964844 48.167969 47.804688 48.328125 47.613281 48.480469 C 47.292969 48.730469 47.285156 48.722656 47.535156 48.402344 C 47.800781 48.066406 47.964844 47.960938 47.964844 48.125 Z M 27.59375 49.566406 C 27.59375 49.675781 27.464844 49.539062 27.308594 49.261719 C 27.148438 48.984375 27.019531 48.667969 27.019531 48.554688 C 27.019531 48.445312 27.148438 48.582031 27.308594 48.859375 C 27.464844 49.136719 27.59375 49.453125 27.59375 49.566406 Z M 34.765625 49.867188 C 34.59375 50.199219 34.40625 50.472656 34.351562 50.472656 C 34.296875 50.472656 34.390625 50.199219 34.5625 49.867188 C 34.734375 49.535156 34.921875 49.261719 34.976562 49.261719 C 35.03125 49.261719 34.9375 49.535156 34.765625 49.867188 Z M 27.886719 50.179688 C 27.957031 50.359375 27.921875 50.441406 27.808594 50.371094 C 27.699219 50.304688 27.609375 50.160156 27.609375 50.058594 C 27.609375 49.765625 27.753906 49.832031 27.886719 50.179688 Z M 34.082031 51.214844 C 33.84375 51.625 33.789062 51.492188 33.984375 50.984375 C 34.050781 50.804688 34.152344 50.699219 34.203125 50.753906 C 34.253906 50.804688 34.199219 51.011719 34.082031 51.214844 Z M 28.617188 51.484375 C 28.734375 51.703125 28.789062 51.886719 28.730469 51.886719 C 28.675781 51.886719 28.535156 51.703125 28.414062 51.484375 C 28.296875 51.261719 28.246094 51.078125 28.300781 51.078125 C 28.355469 51.078125 28.5 51.261719 28.617188 51.484375 Z M 27.308594 52.089844 C 27.480469 52.421875 27.574219 52.695312 27.519531 52.695312 C 27.464844 52.695312 27.277344 52.421875 27.105469 52.089844 C 26.933594 51.753906 26.839844 51.484375 26.894531 51.484375 C 26.949219 51.484375 27.136719 51.753906 27.308594 52.089844 Z M 33.480469 52.832031 C 33.242188 53.238281 33.183594 53.109375 33.378906 52.601562 C 33.445312 52.421875 33.546875 52.316406 33.597656 52.367188 C 33.648438 52.417969 33.597656 52.628906 33.480469 52.832031 Z M 30.347656 53.90625 C 30.863281 54.507812 30.933594 54.644531 30.558594 54.308594 C 30.246094 54.03125 29.800781 53.53125 29.574219 53.199219 C 29.078125 52.480469 29.289062 52.671875 30.347656 53.90625 Z M 28.113281 53.5 C 28.285156 53.835938 28.378906 54.105469 28.324219 54.105469 C 28.269531 54.105469 28.082031 53.835938 27.910156 53.5 C 27.738281 53.167969 27.644531 52.894531 27.699219 52.894531 C 27.753906 52.894531 27.941406 53.167969 28.113281 53.5 Z M 28.820312 54.714844 C 28.9375 54.933594 28.988281 55.117188 28.933594 55.117188 C 28.878906 55.117188 28.734375 54.933594 28.617188 54.714844 C 28.5 54.492188 28.445312 54.308594 28.503906 54.308594 C 28.558594 54.308594 28.699219 54.492188 28.820312 54.714844 Z M 32.246094 54.914062 C 32.078125 55.023438 31.851562 55.109375 31.742188 55.109375 C 31.628906 55.109375 31.675781 55.023438 31.84375 54.914062 C 32.007812 54.808594 32.234375 54.71875 32.34375 54.71875 C 32.457031 54.71875 32.410156 54.808594 32.246094 54.914062 Z M 29.734375 56.175781 C 30.042969 56.648438 30.167969 56.929688 30.011719 56.796875 C 29.710938 56.546875 28.9375 55.320312 29.082031 55.320312 C 29.128906 55.320312 29.421875 55.703125 29.734375 56.175781 Z M 34.890625 55.859375 C 34.652344 56.269531 34.59375 56.136719 34.789062 55.628906 C 34.859375 55.449219 34.957031 55.34375 35.007812 55.394531 C 35.0625 55.449219 35.007812 55.65625 34.890625 55.859375 Z M 34.175781 57.503906 C 33.894531 58.0625 33.582031 58.570312 33.488281 58.628906 C 33.390625 58.691406 33.589844 58.203125 33.933594 57.546875 C 34.277344 56.890625 34.585938 56.386719 34.625 56.421875 C 34.660156 56.460938 34.460938 56.945312 34.175781 57.503906 Z M 32.476562 58.75 C 33.125 58.90625 33.128906 58.910156 32.585938 58.933594 C 32.171875 58.945312 31.789062 58.722656 31.167969 58.09375 C 30.578125 57.503906 30.542969 57.445312 31.058594 57.914062 C 31.46875 58.285156 32.105469 58.664062 32.476562 58.75 Z M 32.476562 58.75 "/>
<path style=" stroke:none;fill-rule:evenodd;fill:rgb(0%,49.803922%,49.803922%);fill-opacity:1;" d="M 24.285156 20.257812 C 20.265625 21.296875 18.042969 26.21875 19.027344 31.898438 C 20.417969 39.921875 26.648438 53.207031 32.898438 61.472656 C 34.78125 63.96875 35.386719 64.375 36.117188 63.644531 L 36.554688 63.207031 L 36.203125 60.6875 C 36.011719 59.300781 35.800781 57.234375 35.730469 56.09375 C 35.648438 54.769531 35.546875 54.164062 35.445312 54.417969 C 33.832031 58.441406 33.503906 58.953125 32.515625 58.953125 C 30.585938 58.953125 25.890625 50.773438 22.371094 41.285156 C 20.96875 37.507812 20.101562 33.003906 20.070312 29.371094 C 20.054688 27.222656 20.074219 27.101562 20.75 25.738281 C 21.136719 24.960938 21.421875 24.238281 21.390625 24.125 C 21.355469 24.015625 21.394531 23.988281 21.472656 24.070312 C 21.550781 24.148438 22.015625 23.863281 22.5 23.4375 C 23.507812 22.546875 24.777344 22.148438 26.046875 22.320312 C 28.832031 22.695312 31.59375 23.671875 34.300781 25.230469 L 35.773438 26.078125 L 34.664062 24.953125 C 32.546875 22.804688 28.167969 21.34375 25.132812 21.773438 C 23.890625 21.953125 23.832031 21.808594 24.988281 21.421875 C 26.632812 20.871094 29.144531 20.917969 30.742188 21.53125 C 31.003906 21.632812 31.058594 21.601562 30.941406 21.414062 C 30.855469 21.269531 30.273438 20.925781 29.648438 20.648438 C 28.28125 20.039062 25.820312 19.859375 24.285156 20.257812 Z M 47.078125 23.128906 C 46.207031 23.292969 45.117188 23.589844 44.660156 23.789062 C 44.207031 23.988281 43.035156 24.40625 42.058594 24.714844 C 40.589844 25.183594 40.015625 25.265625 38.679688 25.207031 C 37.285156 25.140625 37.117188 25.167969 37.429688 25.40625 C 38.257812 26.046875 40.242188 26.839844 41.585938 27.066406 C 42.933594 27.292969 45.894531 27.226562 47.460938 26.933594 C 48.5 26.738281 47.621094 27.203125 45.847656 27.789062 C 44.542969 28.21875 43.855469 28.320312 42.21875 28.320312 C 39.976562 28.324219 39.007812 28.066406 37.125 26.964844 C 35.628906 26.09375 33.035156 25.429688 30.632812 25.296875 C 28.378906 25.175781 27.019531 25.574219 25.640625 26.757812 C 23.433594 28.648438 22.859375 32.859375 24.007812 38.664062 C 24.460938 40.949219 26.21875 46.335938 27.398438 49.058594 C 28.671875 52.007812 30.828125 54.914062 31.742188 54.914062 C 32.269531 54.914062 32.839844 54.050781 33.589844 52.109375 C 34.535156 49.667969 36.164062 47.226562 38.492188 44.761719 C 40.148438 43.011719 40.523438 42.726562 42.382812 41.8125 C 45.296875 40.378906 49.785156 38.976562 49.773438 39.503906 C 49.769531 39.910156 49.398438 40.144531 48.265625 40.472656 C 47.601562 40.664062 46.058594 41.332031 44.839844 41.953125 C 43.09375 42.847656 42.328125 43.382812 41.230469 44.488281 L 39.832031 45.886719 L 40.527344 46.242188 C 42.71875 47.367188 44.0625 50.421875 44.550781 55.382812 C 44.855469 58.503906 44.867188 58.550781 45.417969 58.550781 C 46.023438 58.550781 46.234375 58.289062 47.832031 55.574219 C 51.96875 48.542969 55.015625 40.53125 56.242188 33.46875 C 56.753906 30.542969 56.71875 30.21875 56.113281 32.265625 C 54.492188 37.761719 51.367188 43.613281 47.007812 49.3125 C 46.179688 50.394531 45.46875 51.28125 45.425781 51.28125 C 45.382812 51.28125 46.1875 49.621094 47.21875 47.597656 C 49.015625 44.050781 51.007812 39.039062 51.0625 37.925781 C 51.078125 37.628906 51.144531 37.425781 51.214844 37.46875 C 51.324219 37.535156 51.921875 35.621094 52.828125 32.304688 C 52.964844 31.804688 53.082031 30.167969 53.089844 28.667969 C 53.101562 26.203125 53.058594 25.851562 52.628906 24.980469 C 51.753906 23.195312 49.957031 22.597656 47.078125 23.128906 Z M 47.078125 23.128906 "/>
<path style=" stroke:none;fill-rule:evenodd;fill:rgb(100%,100%,100%);fill-opacity:1;" d="M 24.285156 20.257812 C 20.265625 21.296875 18.042969 26.21875 19.027344 31.898438 C 20.417969 39.921875 26.648438 53.207031 32.898438 61.472656 C 34.78125 63.96875 35.386719 64.375 36.117188 63.644531 L 36.554688 63.207031 L 36.203125 60.6875 C 36.011719 59.300781 35.800781 57.234375 35.730469 56.09375 C 35.648438 54.769531 35.546875 54.164062 35.445312 54.417969 C 33.832031 58.441406 33.503906 58.953125 32.515625 58.953125 C 30.585938 58.953125 25.890625 50.773438 22.371094 41.285156 C 20.96875 37.507812 20.101562 33.003906 20.070312 29.371094 C 20.054688 27.222656 20.074219 27.101562 20.75 25.738281 C 21.136719 24.960938 21.421875 24.238281 21.390625 24.125 C 21.355469 24.015625 21.394531 23.988281 21.472656 24.070312 C 21.550781 24.148438 22.015625 23.863281 22.5 23.4375 C 23.507812 22.546875 24.777344 22.148438 26.046875 22.320312 C 28.832031 22.695312 31.59375 23.671875 34.300781 25.230469 L 35.773438 26.078125 L 34.664062 24.953125 C 32.546875 22.804688 28.167969 21.34375 25.132812 21.773438 C 23.890625 21.953125 23.832031 21.808594 24.988281 21.421875 C 26.632812 20.871094 29.144531 20.917969 30.742188 21.53125 C 31.003906 21.632812 31.058594 21.601562 30.941406 21.414062 C 30.855469 21.269531 30.273438 20.925781 29.648438 20.648438 C 28.28125 20.039062 25.820312 19.859375 24.285156 20.257812 Z M 47.078125 23.128906 C 46.207031 23.292969 45.117188 23.589844 44.660156 23.789062 C 44.207031 23.988281 43.035156 24.40625 42.058594 24.714844 C 40.589844 25.183594 40.015625 25.265625 38.679688 25.207031 C 37.285156 25.140625 37.117188 25.167969 37.429688 25.40625 C 38.257812 26.046875 40.242188 26.839844 41.585938 27.066406 C 42.933594 27.292969 45.894531 27.226562 47.460938 26.933594 C 48.5 26.738281 47.621094 27.203125 45.847656 27.789062 C 44.542969 28.21875 43.855469 28.320312 42.21875 28.320312 C 39.976562 28.324219 39.007812 28.066406 37.125 26.964844 C 35.628906 26.09375 33.035156 25.429688 30.632812 25.296875 C 28.378906 25.175781 27.019531 25.574219 25.640625 26.757812 C 23.433594 28.648438 22.859375 32.859375 24.007812 38.664062 C 24.460938 40.949219 26.21875 46.335938 27.398438 49.058594 C 28.671875 52.007812 30.828125 54.914062 31.742188 54.914062 C 32.269531 54.914062 32.839844 54.050781 33.589844 52.109375 C 34.535156 49.667969 36.164062 47.226562 38.492188 44.761719 C 40.148438 43.011719 40.523438 42.726562 42.382812 41.8125 C 45.296875 40.378906 49.785156 38.976562 49.773438 39.503906 C 49.769531 39.910156 49.398438 40.144531 48.265625 40.472656 C 47.601562 40.664062 46.058594 41.332031 44.839844 41.953125 C 43.09375 42.847656 42.328125 43.382812 41.230469 44.488281 L 39.832031 45.886719 L 40.527344 46.242188 C 42.71875 47.367188 44.0625 50.421875 44.550781 55.382812 C 44.855469 58.503906 44.867188 58.550781 45.417969 58.550781 C 46.023438 58.550781 46.234375 58.289062 47.832031 55.574219 C 51.96875 48.542969 55.015625 40.53125 56.242188 33.46875 C 56.753906 30.542969 56.71875 30.21875 56.113281 32.265625 C 54.492188 37.761719 51.367188 43.613281 47.007812 49.3125 C 46.179688 50.394531 45.46875 51.28125 45.425781 51.28125 C 45.382812 51.28125 46.1875 49.621094 47.21875 47.597656 C 49.015625 44.050781 51.007812 39.039062 51.0625 37.925781 C 51.078125 37.628906 51.144531 37.425781 51.214844 37.46875 C 51.324219 37.535156 51.921875 35.621094 52.828125 32.304688 C 52.964844 31.804688 53.082031 30.167969 53.089844 28.667969 C 53.101562 26.203125 53.058594 25.851562 52.628906 24.980469 C 51.753906 23.195312 49.957031 22.597656 47.078125 23.128906 Z M 47.078125 23.128906 "/>
</g>
</svg>
